<svg width="98" height="103" viewBox="0 0 98 103" fill="none" xmlns="http://www.w3.org/2000/svg">
<mask id="path-1-outside-1_1_7684" maskUnits="userSpaceOnUse" x="-1.20873" y="-0.616177" width="100.793" height="104.825" fill="black">
<rect fill="white" x="-1.20873" y="-0.616177" width="100.793" height="104.825"/>
<path d="M47.6551 23.3116L48.156 12.6688L58.1727 18.5537L57.6719 29.0712L47.6551 23.3116Z"/>
<path d="M49.2809 14.6719L56.543 18.929V27.1928L49.2809 23.0609V14.6719ZM46.7767 10.9156V24.8138L55.917 30.0726L59.2976 30.949V17.5517L46.7767 10.9156Z"/>
<path d="M62.6831 17.552L72.0738 12.6688V24.1881L62.6831 29.1965V17.552Z"/>
<path d="M71.0665 14.6719V23.0609L63.8043 27.1928V18.929L71.0665 14.6719ZM73.195 10.9156L61.5506 17.5517V30.949L73.195 24.8138V10.9156Z"/>
<path d="M50.7842 8.41164L60.6757 2.65202L69.6907 8.28643L60.1748 13.7956L50.7842 8.41164Z"/>
<path d="M60.1781 4.27949L67.4402 8.4114L60.1781 12.2929L52.9159 8.16098L60.1781 4.02908M60.1781 1.39969L48.5336 8.16098L60.1781 14.9223L71.8225 8.4114L60.1781 1.6501V1.39969Z"/>
<path d="M65.1878 33.4528L75.2045 27.6932L84.2196 33.4528L74.7037 38.8368L65.1878 33.4528Z"/>
<path d="M74.5726 29.3216L81.8347 33.4535L74.5726 37.3349L67.4357 33.0778L74.5726 28.9459M74.5726 26.4417L63.0534 33.0778L74.5726 39.8391L86.2171 33.0778L74.5726 26.4417Z"/>
<path d="M48.1563 42.5936L57.6722 37.7104V49.3549L48.1563 54.238V42.5936Z"/>
<path d="M56.543 39.8391V48.1029L49.2809 52.36V43.971L56.543 39.8391ZM59.2976 35.9576L46.7767 42.7189V56.1163L59.2976 49.8559V35.9576Z"/>
<path d="M77.2029 42.5931L86.5936 37.71V49.3544L77.2029 54.2376V42.5931Z"/>
<path d="M85.4688 39.8389V48.1027L78.2067 52.3598V43.9708L85.4688 39.8389ZM87.7226 35.9574L76.0781 42.7187V56.1161L87.7226 49.8556V35.9574Z"/>
<path d="M62.1822 48.3537L62.683 37.8361L72.6998 43.5957L72.1989 54.2385L62.1822 48.3537Z"/>
<path d="M63.8043 39.8391L71.0665 43.971V52.36L63.8043 48.1029V39.8391ZM61.5506 35.9576V49.8559L73.195 56.6171V42.7189L61.5506 35.9576Z"/>
<path d="M33.1281 48.3537L33.629 37.8361L43.6457 43.5957L43.2701 54.2385L33.1281 48.3537Z"/>
<path d="M34.2548 39.8391L41.517 43.971V52.36L34.2548 48.1029V39.8391ZM32.1263 35.9576V49.8559L43.7707 56.6171V42.7189L32.1263 35.9576Z"/>
<path d="M36.2644 33.4528L46.2811 27.6932L53.1676 32.3259L55.0458 33.4528L45.6551 38.8368L36.2644 33.4528Z"/>
<path d="M45.6547 29.3216L52.6664 33.3282L45.6547 37.3349L38.3926 33.0778L45.6547 28.9459M45.6547 26.4417L34.2607 33.4535L45.9051 40.2148L57.5496 33.4535L54.0437 31.4501L45.9051 26.8174L45.6547 26.4417Z"/>
<path d="M1.19917 79.5302L8.08567 72.7689L29.6217 94.4301L22.8604 101.066L1.19917 79.5302ZM21.7335 89.9225C20.8136 89.9538 19.9399 90.3331 19.289 90.984C18.6382 91.6348 18.2588 92.5085 18.2276 93.4284C18.2276 94.3582 18.597 95.2499 19.2545 95.9074C19.9119 96.5649 20.8037 96.9343 21.7335 96.9343C22.1986 96.9518 22.6623 96.8732 23.0956 96.7032C23.5289 96.5332 23.9225 96.2756 24.2516 95.9465C24.5807 95.6174 24.8383 95.2238 25.0083 94.7905C25.1782 94.3572 25.2569 93.8935 25.2393 93.4284C25.2393 92.4986 24.87 91.6069 24.2125 90.9494C23.555 90.2919 22.6633 89.9225 21.7335 89.9225ZM14.5965 72.2681C19.1146 67.0706 25.5074 63.8742 32.3763 63.3782C36.0068 63.4369 39.5541 64.4752 42.6434 66.3832H61.8004C63.3645 66.3803 64.8707 66.9749 66.0111 68.0454C67.1515 69.116 67.8399 70.5816 67.9357 72.1428L46.7753 72.8941C46.1112 72.8941 45.4742 73.1579 45.0046 73.6276C44.535 74.0972 44.2711 74.7341 44.2711 75.3983C44.2711 76.0624 44.535 76.6994 45.0046 77.169C45.4742 77.6386 46.1112 77.9025 46.7753 77.9025H67.56C68.3447 77.9506 69.1305 77.8302 69.8648 77.5495C70.5991 77.2687 71.2648 76.8341 71.8172 76.2747C72.351 75.6405 72.7743 74.9209 73.0693 74.1462L88.47 66.8841C89.482 66.384 90.5966 66.1268 91.7254 66.1328H93.6036C94.2366 66.2429 94.8146 66.5615 95.2457 67.0379C95.6768 67.5144 95.9362 68.1213 95.9825 68.7622C96.1392 69.3628 96.0885 69.9988 95.8385 70.5669C95.5885 71.1351 95.1539 71.6022 94.6052 71.8924L83.2112 78.1529C79.9221 80.1178 76.3848 81.6338 72.6936 82.6604L60.1727 86.1663C56.9077 87.0448 53.5367 87.4662 50.156 87.4184H34.2544C33.2075 87.4282 32.1778 87.6857 31.2494 88.1696L14.5965 72.2681Z"/>
<path d="M32.3837 64.5049C35.9706 64.592 39.4703 65.6289 42.5256 67.5099H61.8079C62.9408 67.5092 64.0406 67.8926 64.9275 68.5976C65.8144 69.3026 66.4361 70.2875 66.691 71.3914H46.7828C45.8197 71.3914 44.8962 71.774 44.2152 72.4549C43.5342 73.1359 43.1517 74.0595 43.1517 75.0225C43.1517 75.9855 43.5342 76.9091 44.2152 77.59C44.8962 78.271 45.8197 78.6535 46.7828 78.6535H67.5675C69.1301 78.6099 70.6314 78.0359 71.8246 77.0258C72.5599 76.4869 73.1249 75.7481 73.4523 74.8973L88.7278 67.3847C89.5718 66.9287 90.5243 66.7122 91.4824 66.7587H93.1102C93.5121 66.8811 93.8745 67.1078 94.1604 67.4157C94.4463 67.7236 94.6455 68.1017 94.7379 68.5116C94.8404 68.8954 94.8096 69.3027 94.6503 69.6667C94.4911 70.0307 94.2129 70.3298 93.8614 70.5149L82.4674 76.7754C79.1209 78.8755 75.5514 80.5972 71.8246 81.909L59.3037 85.2896C56.1438 86.2725 52.8458 86.7376 49.5374 86.6669H34.2618C33.3477 86.5447 32.4214 86.5447 31.5072 86.6669L16.2317 72.3931C18.2626 70.0684 20.7376 68.173 23.5114 66.8184C26.2851 65.4637 29.3016 64.6772 32.3837 64.5049ZM7.96791 74.8973L22.4922 88.7955H21.7409C20.5222 88.8272 19.3622 89.3254 18.5001 90.1874C17.6381 91.0495 17.1399 92.2095 17.1082 93.4282L2.83434 79.53L7.96791 74.8973ZM26.4989 92.9274L28.0014 94.4299L22.8678 99.9391L21.7409 98.061C22.354 98.0782 22.9642 97.9702 23.534 97.7435C24.1039 97.5168 24.6215 97.1762 25.0552 96.7425C25.4889 96.3088 25.8295 95.7912 26.0562 95.2213C26.2829 94.6514 26.3909 94.0413 26.3737 93.4282M32.3837 62.3763C28.6455 62.6523 25.0043 63.6952 21.6868 65.4401C18.3694 67.185 15.4469 69.5944 13.1015 72.5183L30.5056 89.6719C31.6511 89.0344 32.9524 88.7307 34.2618 88.7955H50.2886C53.8024 88.8636 57.3063 88.3993 60.681 87.4182L73.2019 84.0375C76.9552 82.9064 80.5678 81.3522 83.9699 79.4048L95.3639 73.1443C96.0003 72.657 96.4812 71.995 96.748 71.2391C97.0148 70.4832 97.0559 69.6661 96.8664 68.8872C96.7391 68.0488 96.3778 67.2633 95.8241 66.621C95.2704 65.9787 94.5467 65.5057 93.7362 65.2562H91.4824C90.1771 65.233 88.8864 65.5341 87.7262 66.1326L71.8246 73.7704C71.6631 74.4376 71.3158 75.0454 70.8229 75.5233C70.4247 75.9568 69.941 76.303 69.4022 76.5401C68.8634 76.7772 68.2813 76.8999 67.6927 76.9006H46.7828C46.5352 76.9149 46.288 76.8678 46.0631 76.7634C45.8382 76.6589 45.6427 76.5005 45.4939 76.3021C45.3452 76.1038 45.2478 75.8717 45.2105 75.6266C45.1732 75.3814 45.1972 75.1309 45.2803 74.8973C45.3917 74.6006 45.6019 74.3515 45.8756 74.1918C46.1493 74.0322 46.4697 73.9718 46.7828 74.0208H67.5675C67.7447 74.1002 67.9367 74.1413 68.1309 74.1413C68.3251 74.1413 68.5172 74.1002 68.6944 74.0208C68.8201 73.6987 68.8201 73.3412 68.6944 73.0191C68.598 71.1589 67.7906 69.4069 66.439 68.1252C65.0874 66.8435 63.2949 66.1301 61.4322 66.1326H43.2769C40.0405 63.942 36.2824 62.6461 32.3837 62.3763ZM7.96791 71.767L1.08141 78.6535C0.905284 78.8396 0.807133 79.086 0.807133 79.3422C0.807133 79.5984 0.905284 79.8448 1.08141 80.0308L21.7409 101.942C21.9577 102.105 22.2213 102.193 22.4922 102.193C22.7631 102.193 23.0267 102.105 23.2434 101.942L30.0047 95.1811C30.1895 94.9745 30.2917 94.7071 30.2917 94.4299C30.2917 94.1527 30.1895 93.8852 30.0047 93.6786L9.22 72.0175H8.46875L7.96791 71.767ZM21.7409 95.9324C21.0987 95.9003 20.4935 95.6223 20.0506 95.1561C19.6077 94.6899 19.3611 94.0712 19.3619 93.4282C19.3438 93.1111 19.3929 92.7936 19.506 92.4968C19.6191 92.1999 19.7937 91.9303 20.0184 91.7057C20.243 91.481 20.5126 91.3064 20.8095 91.1933C21.1063 91.0802 21.4238 91.0311 21.7409 91.0492C22.0637 91.0322 22.3866 91.0812 22.6898 91.1931C22.9931 91.305 23.2703 91.4775 23.5046 91.7002C23.739 91.9228 23.9255 92.1908 24.0528 92.4879C24.1801 92.7851 24.2456 93.105 24.2451 93.4282C24.2451 94.0924 23.9813 94.7293 23.5116 95.1989C23.042 95.6686 22.4051 95.9324 21.7409 95.9324Z"/>
</mask>
<path d="M49.2809 14.6719L56.543 18.929V27.1928L49.2809 23.0609V14.6719ZM46.7767 10.9156V24.8138L55.917 30.0726L59.2976 30.949V17.5517L46.7767 10.9156Z" fill="url(#paint0_linear_1_7684)"/>
<path d="M71.0665 14.6719V23.0609L63.8043 27.1928V18.929L71.0665 14.6719ZM73.195 10.9156L61.5506 17.5517V30.949L73.195 24.8138V10.9156Z" fill="url(#paint1_linear_1_7684)"/>
<path d="M60.1781 4.27949L67.4402 8.4114L60.1781 12.2929L52.9159 8.16098L60.1781 4.02908M60.1781 1.39969L48.5336 8.16098L60.1781 14.9223L71.8225 8.4114L60.1781 1.6501V1.39969Z" fill="url(#paint2_linear_1_7684)"/>
<path d="M74.5726 29.3216L81.8347 33.4535L74.5726 37.3349L67.4357 33.0778L74.5726 28.9459M74.5726 26.4417L63.0534 33.0778L74.5726 39.8391L86.2171 33.0778L74.5726 26.4417Z" fill="url(#paint3_linear_1_7684)"/>
<path d="M56.543 39.8391V48.1029L49.2809 52.36V43.971L56.543 39.8391ZM59.2976 35.9576L46.7767 42.7189V56.1163L59.2976 49.8559V35.9576Z" fill="url(#paint4_linear_1_7684)"/>
<path d="M85.4688 39.8389V48.1027L78.2067 52.3598V43.9708L85.4688 39.8389ZM87.7226 35.9574L76.0781 42.7187V56.1161L87.7226 49.8556V35.9574Z" fill="url(#paint5_linear_1_7684)"/>
<path d="M63.8043 39.8391L71.0665 43.971V52.36L63.8043 48.1029V39.8391ZM61.5506 35.9576V49.8559L73.195 56.6171V42.7189L61.5506 35.9576Z" fill="url(#paint6_linear_1_7684)"/>
<path d="M34.2548 39.8391L41.517 43.971V52.36L34.2548 48.1029V39.8391ZM32.1263 35.9576V49.8559L43.7707 56.6171V42.7189L32.1263 35.9576Z" fill="url(#paint7_linear_1_7684)"/>
<path d="M45.6547 29.3216L52.6664 33.3282L45.6547 37.3349L38.3926 33.0778L45.6547 28.9459M45.6547 26.4417L34.2607 33.4535L45.9051 40.2148L57.5496 33.4535L54.0437 31.4501L45.9051 26.8174L45.6547 26.4417Z" fill="url(#paint8_linear_1_7684)"/>
<path d="M32.3837 64.5049C35.9706 64.592 39.4703 65.6289 42.5256 67.5099H61.8079C62.9408 67.5092 64.0406 67.8926 64.9275 68.5976C65.8144 69.3026 66.4361 70.2875 66.691 71.3914H46.7828C45.8197 71.3914 44.8962 71.774 44.2152 72.4549C43.5342 73.1359 43.1517 74.0595 43.1517 75.0225C43.1517 75.9855 43.5342 76.9091 44.2152 77.59C44.8962 78.271 45.8197 78.6535 46.7828 78.6535H67.5675C69.1301 78.6099 70.6314 78.0359 71.8246 77.0258C72.5599 76.4869 73.1249 75.7481 73.4523 74.8973L88.7278 67.3847C89.5718 66.9287 90.5243 66.7122 91.4824 66.7587H93.1102C93.5121 66.8811 93.8745 67.1078 94.1604 67.4157C94.4463 67.7236 94.6455 68.1017 94.7379 68.5116C94.8404 68.8954 94.8096 69.3027 94.6503 69.6667C94.4911 70.0307 94.2129 70.3298 93.8614 70.5149L82.4674 76.7754C79.1209 78.8755 75.5514 80.5972 71.8246 81.909L59.3037 85.2896C56.1438 86.2725 52.8458 86.7376 49.5374 86.6669H34.2618C33.3477 86.5447 32.4214 86.5447 31.5072 86.6669L16.2317 72.3931C18.2626 70.0684 20.7376 68.173 23.5114 66.8184C26.2851 65.4637 29.3016 64.6772 32.3837 64.5049ZM7.96791 74.8973L22.4922 88.7955H21.7409C20.5222 88.8272 19.3622 89.3254 18.5001 90.1874C17.6381 91.0495 17.1399 92.2095 17.1082 93.4282L2.83434 79.53L7.96791 74.8973ZM26.4989 92.9274L28.0014 94.4299L22.8678 99.9391L21.7409 98.061C22.354 98.0782 22.9642 97.9702 23.534 97.7435C24.1039 97.5168 24.6215 97.1762 25.0552 96.7425C25.4889 96.3088 25.8295 95.7912 26.0562 95.2213C26.2829 94.6514 26.3909 94.0413 26.3737 93.4282M32.3837 62.3763C28.6455 62.6523 25.0043 63.6952 21.6868 65.4401C18.3694 67.185 15.4469 69.5944 13.1015 72.5183L30.5056 89.6719C31.6511 89.0344 32.9524 88.7307 34.2618 88.7955H50.2886C53.8024 88.8636 57.3063 88.3993 60.681 87.4182L73.2019 84.0375C76.9552 82.9064 80.5678 81.3522 83.9699 79.4048L95.3639 73.1443C96.0003 72.657 96.4812 71.995 96.748 71.2391C97.0148 70.4832 97.0559 69.6661 96.8664 68.8872C96.7391 68.0488 96.3778 67.2633 95.8241 66.621C95.2704 65.9787 94.5467 65.5057 93.7362 65.2562H91.4824C90.1771 65.233 88.8864 65.5341 87.7262 66.1326L71.8246 73.7704C71.6631 74.4376 71.3158 75.0454 70.8229 75.5233C70.4247 75.9568 69.941 76.303 69.4022 76.5401C68.8634 76.7772 68.2813 76.8999 67.6927 76.9006H46.7828C46.5352 76.9149 46.288 76.8678 46.0631 76.7634C45.8382 76.6589 45.6427 76.5005 45.4939 76.3021C45.3452 76.1038 45.2478 75.8717 45.2105 75.6266C45.1732 75.3814 45.1972 75.1309 45.2803 74.8973C45.3917 74.6006 45.6019 74.3515 45.8756 74.1918C46.1493 74.0322 46.4697 73.9718 46.7828 74.0208H67.5675C67.7447 74.1002 67.9367 74.1413 68.1309 74.1413C68.3251 74.1413 68.5172 74.1002 68.6944 74.0208C68.8201 73.6987 68.8201 73.3412 68.6944 73.0191C68.598 71.1589 67.7906 69.4069 66.439 68.1252C65.0874 66.8435 63.2949 66.1301 61.4322 66.1326H43.2769C40.0405 63.942 36.2824 62.6461 32.3837 62.3763ZM7.96791 71.767L1.08141 78.6535C0.905284 78.8396 0.807133 79.086 0.807133 79.3422C0.807133 79.5984 0.905284 79.8448 1.08141 80.0308L21.7409 101.942C21.9577 102.105 22.2213 102.193 22.4922 102.193C22.7631 102.193 23.0267 102.105 23.2434 101.942L30.0047 95.1811C30.1895 94.9745 30.2917 94.7071 30.2917 94.4299C30.2917 94.1527 30.1895 93.8852 30.0047 93.6786L9.22 72.0175H8.46875L7.96791 71.767ZM21.7409 95.9324C21.0987 95.9003 20.4935 95.6223 20.0506 95.1561C19.6077 94.6899 19.3611 94.0712 19.3619 93.4282C19.3438 93.1111 19.3929 92.7936 19.506 92.4968C19.6191 92.1999 19.7937 91.9303 20.0184 91.7057C20.243 91.481 20.5126 91.3064 20.8095 91.1933C21.1063 91.0802 21.4238 91.0311 21.7409 91.0492C22.0637 91.0322 22.3866 91.0812 22.6898 91.1931C22.9931 91.305 23.2703 91.4775 23.5046 91.7002C23.739 91.9228 23.9255 92.1908 24.0528 92.4879C24.1801 92.7851 24.2456 93.105 24.2451 93.4282C24.2451 94.0924 23.9813 94.7293 23.5116 95.1989C23.042 95.6686 22.4051 95.9324 21.7409 95.9324Z" fill="url(#paint9_linear_1_7684)"/>
<path d="M47.6551 23.3116L46.8497 23.2737L46.8266 23.7653L47.2532 24.0106L47.6551 23.3116ZM48.156 12.6688L48.5644 11.9736L47.4133 11.2973L47.3505 12.6309L48.156 12.6688ZM58.1727 18.5537L58.9782 18.592L59.0013 18.1053L58.5812 17.8584L58.1727 18.5537ZM57.6719 29.0712L57.2699 29.7703L58.4145 30.4284L58.4773 29.1096L57.6719 29.0712ZM49.2809 14.6719L49.6887 13.9762L48.4745 13.2645V14.6719H49.2809ZM56.543 18.929H57.3494V18.467L56.9508 18.2333L56.543 18.929ZM56.543 27.1928L56.1443 27.8936L57.3494 28.5793V27.1928H56.543ZM49.2809 23.0609H48.4745V23.5298L48.8821 23.7617L49.2809 23.0609ZM46.7767 10.9156L47.1543 10.2031L45.9704 9.57562V10.9156H46.7767ZM46.7767 24.8138H45.9704V25.2801L46.3746 25.5127L46.7767 24.8138ZM55.917 30.0726L55.5149 30.7715L55.6092 30.8258L55.7146 30.8531L55.917 30.0726ZM59.2976 30.949L59.0953 31.7296L60.104 31.9911V30.949H59.2976ZM59.2976 17.5517H60.104V17.0664L59.6752 16.8392L59.2976 17.5517ZM62.6831 17.552L62.3111 16.8366L61.8768 17.0624V17.552H62.6831ZM72.0738 12.6688H72.8801V11.3407L71.7018 11.9534L72.0738 12.6688ZM72.0738 24.1881L72.4532 24.8996L72.8801 24.6719V24.1881H72.0738ZM62.6831 29.1965H61.8768V30.5404L63.0626 29.9079L62.6831 29.1965ZM71.0665 14.6719H71.8728V13.2645L70.6587 13.9762L71.0665 14.6719ZM71.0665 23.0609L71.4652 23.7617L71.8728 23.5298V23.0609H71.0665ZM63.8043 27.1928H62.998V28.5793L64.2031 27.8936L63.8043 27.1928ZM63.8043 18.929L63.3965 18.2333L62.998 18.467V18.929H63.8043ZM73.195 10.9156H74.0014V9.52795L72.7958 10.215L73.195 10.9156ZM61.5506 17.5517L61.1513 16.8511L60.7442 17.0831V17.5517H61.5506ZM61.5506 30.949H60.7442V32.2853L61.9264 31.6624L61.5506 30.949ZM73.195 24.8138L73.5709 25.5272L74.0014 25.3004V24.8138H73.195ZM50.7842 8.41164L50.3784 7.71482L49.1724 8.41704L50.3831 9.11117L50.7842 8.41164ZM60.6757 2.65202L61.103 1.96824L60.6904 1.71035L60.2699 1.95519L60.6757 2.65202ZM69.6907 8.28643L70.0948 8.98426L71.2545 8.31286L70.1181 7.60265L69.6907 8.28643ZM60.1748 13.7956L59.7738 14.4952L60.1768 14.7262L60.5789 14.4935L60.1748 13.7956ZM67.4402 8.4114L67.8203 9.12254L69.1095 8.43347L67.8389 7.71055L67.4402 8.4114ZM60.1781 12.2929L59.7793 12.9937L60.1659 13.2137L60.5581 13.004L60.1781 12.2929ZM52.9159 8.16098L52.5172 7.46014L51.2854 8.16098L52.5172 8.86183L52.9159 8.16098ZM60.1781 1.39969H60.9844V-0.000932882L59.7732 0.702368L60.1781 1.39969ZM48.5336 8.16098L48.1287 7.46366L46.9278 8.16098L48.1287 8.8583L48.5336 8.16098ZM60.1781 14.9223L59.7732 15.6196L60.1705 15.8503L60.5716 15.6261L60.1781 14.9223ZM71.8225 8.4114L72.216 9.1152L73.4511 8.42462L72.2274 7.71408L71.8225 8.4114ZM60.1781 1.6501H59.3717V2.11432L59.7732 2.34742L60.1781 1.6501ZM65.1878 33.4528L64.7858 32.7538L63.5603 33.4584L64.7907 34.1546L65.1878 33.4528ZM75.2045 27.6932L75.6386 27.0137L75.2265 26.7504L74.8026 26.9941L75.2045 27.6932ZM84.2196 33.4528L84.6166 34.1546L85.7829 33.4947L84.6537 32.7733L84.2196 33.4528ZM74.7037 38.8368L74.3066 39.5386L74.7037 39.7632L75.1007 39.5386L74.7037 38.8368ZM81.8347 33.4535L82.2148 34.1646L83.5041 33.4755L82.2335 32.7526L81.8347 33.4535ZM74.5726 37.3349L74.1595 38.0274L74.5509 38.2609L74.9527 38.0461L74.5726 37.3349ZM67.4357 33.0778L67.0317 32.38L65.8442 33.0674L67.0226 33.7703L67.4357 33.0778ZM74.5726 26.4417L74.9719 25.7412L74.5705 25.5124L74.1701 25.743L74.5726 26.4417ZM63.0534 33.0778L62.6509 32.3791L61.4493 33.0713L62.6452 33.7732L63.0534 33.0778ZM74.5726 39.8391L74.1644 40.5345L74.5704 40.7728L74.9775 40.5364L74.5726 39.8391ZM86.2171 33.0778L86.622 33.7751L87.8341 33.0713L86.6163 32.3773L86.2171 33.0778ZM48.1563 42.5936L47.7882 41.8762L47.35 42.101V42.5936H48.1563ZM57.6722 37.7104H58.4786V36.3903L57.3041 36.993L57.6722 37.7104ZM57.6722 49.3549L58.0404 50.0723L58.4786 49.8474V49.3549H57.6722ZM48.1563 54.238H47.35V55.5581L48.5245 54.9554L48.1563 54.238ZM56.543 39.8391H57.3494V38.4526L56.1443 39.1383L56.543 39.8391ZM56.543 48.1029L56.9508 48.7986L57.3494 48.5649V48.1029H56.543ZM49.2809 52.36H48.4745V53.7674L49.6887 53.0557L49.2809 52.36ZM49.2809 43.971L48.8821 43.2702L48.4745 43.5021V43.971H49.2809ZM59.2976 35.9576H60.104V34.6058L58.9145 35.2481L59.2976 35.9576ZM46.7767 42.7189L46.3936 42.0094L45.9704 42.238V42.7189H46.7767ZM46.7767 56.1163H45.9704V57.421L47.1373 56.8375L46.7767 56.1163ZM59.2976 49.8559L59.6582 50.5771L60.104 50.3542V49.8559H59.2976ZM77.2029 42.5931L76.8309 41.8777L76.3965 42.1036V42.5931H77.2029ZM86.5936 37.71H87.3999V36.3818L86.2215 36.9946L86.5936 37.71ZM86.5936 49.3544L86.9656 50.0698L87.3999 49.844V49.3544H86.5936ZM77.2029 54.2376H76.3965V55.5657L77.5749 54.953L77.2029 54.2376ZM85.4688 39.8389H86.2751V38.4524L85.07 39.138L85.4688 39.8389ZM85.4688 48.1027L85.8766 48.7983L86.2751 48.5647V48.1027H85.4688ZM78.2067 52.3598H77.4003V53.7671L78.6145 53.0554L78.2067 52.3598ZM78.2067 43.9708L77.8079 43.2699L77.4003 43.5018V43.9708H78.2067ZM87.7226 35.9574H88.5289V34.5568L87.3177 35.2601L87.7226 35.9574ZM76.0781 42.7187L75.6732 42.0214L75.2718 42.2545V42.7187H76.0781ZM76.0781 56.1161H75.2718V57.4651L76.46 56.8263L76.0781 56.1161ZM87.7226 49.8556L88.1044 50.5658L88.5289 50.3376V49.8556H87.7226ZM62.1822 48.3537L61.3767 48.3153L61.3536 48.8021L61.7737 49.0489L62.1822 48.3537ZM62.683 37.8361L63.085 37.1371L61.9404 36.479L61.8776 37.7978L62.683 37.8361ZM72.6998 43.5957L73.5052 43.6336L73.5283 43.142L73.1017 42.8967L72.6998 43.5957ZM72.1989 54.2385L71.7905 54.9338L72.9416 55.6101L73.0044 54.2764L72.1989 54.2385ZM63.8043 39.8391L64.2031 39.1383L62.998 38.4526V39.8391H63.8043ZM71.0665 43.971H71.8728V43.5021L71.4652 43.2702L71.0665 43.971ZM71.0665 52.36L70.6587 53.0557L71.8728 53.7674V52.36H71.0665ZM63.8043 48.1029H62.998V48.5649L63.3965 48.7986L63.8043 48.1029ZM61.5506 35.9576L61.9555 35.2603L60.7442 34.557V35.9576H61.5506ZM61.5506 49.8559H60.7442V50.3201L61.1457 50.5532L61.5506 49.8559ZM73.195 56.6171L72.7901 57.3145L74.0014 58.0178V56.6171H73.195ZM73.195 42.7189H74.0014V42.2547L73.5999 42.0216L73.195 42.7189ZM33.1281 48.3537L32.3227 48.3153L32.2994 48.8051L32.7234 49.0511L33.1281 48.3537ZM33.629 37.8361L34.0309 37.1371L32.8863 36.479L32.8235 37.7978L33.629 37.8361ZM43.6457 43.5957L44.4515 43.6242L44.4687 43.1388L44.0476 42.8967L43.6457 43.5957ZM43.2701 54.2385L42.8654 54.936L44.0285 55.6108L44.0759 54.267L43.2701 54.2385ZM34.2548 39.8391L34.6536 39.1383L33.4485 38.4526V39.8391H34.2548ZM41.517 43.971H42.3233V43.5021L41.9157 43.2702L41.517 43.971ZM41.517 52.36L41.1092 53.0557L42.3233 53.7674V52.36H41.517ZM34.2548 48.1029H33.4485V48.5649L33.847 48.7986L34.2548 48.1029ZM32.1263 35.9576L32.5312 35.2603L31.3199 34.557V35.9576H32.1263ZM32.1263 49.8559H31.3199V50.3201L31.7214 50.5532L32.1263 49.8559ZM43.7707 56.6171L43.3658 57.3145L44.5771 58.0178V56.6171H43.7707ZM43.7707 42.7189H44.5771V42.2547L44.1756 42.0216L43.7707 42.7189ZM36.2644 33.4528L35.8625 32.7538L34.645 33.4538L35.8633 34.1523L36.2644 33.4528ZM46.2811 27.6932L46.7312 27.0241L46.3145 26.7438L45.8792 26.9941L46.2811 27.6932ZM53.1676 32.3259L52.7176 32.9949L52.7349 33.0066L52.7528 33.0173L53.1676 32.3259ZM55.0458 33.4528L55.4468 34.1523L56.6394 33.4686L55.4606 32.7614L55.0458 33.4528ZM45.6551 38.8368L45.254 39.5363L45.6551 39.7663L46.0562 39.5363L45.6551 38.8368ZM52.6664 33.3282L53.0665 34.0283L54.2917 33.3282L53.0665 32.6281L52.6664 33.3282ZM45.6547 37.3349L45.2469 38.0306L45.6496 38.2666L46.0548 38.035L45.6547 37.3349ZM38.3926 33.0778L37.9938 32.377L36.7803 33.0674L37.9848 33.7735L38.3926 33.0778ZM45.6547 26.4417L46.3256 25.9945L45.8943 25.3475L45.2321 25.755L45.6547 26.4417ZM34.2607 33.4535L33.8381 32.7667L32.6895 33.4736L33.8558 34.1508L34.2607 33.4535ZM45.9051 40.2148L45.5002 40.9121L45.9051 41.1472L46.31 40.9121L45.9051 40.2148ZM57.5496 33.4535L57.9545 34.1508L59.165 33.4479L57.9496 32.7534L57.5496 33.4535ZM54.0437 31.4501L54.4438 30.75L54.4426 30.7493L54.0437 31.4501ZM45.9051 26.8174L45.2342 27.2646L45.3402 27.4236L45.5062 27.5181L45.9051 26.8174ZM1.19917 79.5302L0.634249 78.9548L0.0518815 79.5266L0.63065 80.102L1.19917 79.5302ZM8.08567 72.7689L8.6575 72.2004L8.09254 71.6321L7.52076 72.1935L8.08567 72.7689ZM29.6217 94.4301L30.1865 95.0056L30.7657 94.4371L30.1935 93.8616L29.6217 94.4301ZM22.8604 101.066L22.2918 101.638L22.8567 102.2L23.4252 101.642L22.8604 101.066ZM21.7335 89.9225V89.1157L21.7061 89.1167L21.7335 89.9225ZM18.2276 93.4284L17.4213 93.401V93.4284H18.2276ZM21.7335 96.9343L21.7639 96.1285L21.7487 96.1279H21.7335V96.9343ZM25.2393 93.4284H24.433V93.4436L24.4336 93.4588L25.2393 93.4284ZM14.5965 72.2681L13.988 71.739L13.4831 72.3198L14.0397 72.8512L14.5965 72.2681ZM32.3763 63.3782L32.3893 62.572L32.3537 62.5714L32.3182 62.574L32.3763 63.3782ZM42.6434 66.3832L42.2197 67.0693L42.4145 67.1896H42.6434V66.3832ZM61.8004 66.3832V67.1896H61.8019L61.8004 66.3832ZM67.9357 72.1428L67.9643 72.9487L68.7912 72.9193L68.7405 72.0935L67.9357 72.1428ZM46.7753 72.8941V73.7004H46.7896L46.8039 73.6999L46.7753 72.8941ZM46.7753 77.9025V77.0961V77.9025ZM67.56 77.9025L67.6094 77.0976L67.5847 77.0961H67.56V77.9025ZM71.8172 76.2747L72.3909 76.8413L72.4134 76.8185L72.4341 76.794L71.8172 76.2747ZM73.0693 74.1462L72.7253 73.4169L72.4313 73.5555L72.3157 73.8593L73.0693 74.1462ZM88.47 66.8841L88.8139 67.6135L88.8272 67.607L88.47 66.8841ZM91.7254 66.1328L91.7211 66.9392H91.7254V66.1328ZM93.6036 66.1328L93.7417 65.3384L93.6731 65.3265H93.6036V66.1328ZM95.9825 68.7622L95.1783 68.8204L95.1836 68.8942L95.2023 68.9658L95.9825 68.7622ZM94.6052 71.8924L94.2281 71.1796L94.2169 71.1857L94.6052 71.8924ZM83.2112 78.1529L82.8229 77.4462L82.8101 77.4532L82.7977 77.4607L83.2112 78.1529ZM72.6936 82.6604L72.4775 81.8836L72.4762 81.8839L72.6936 82.6604ZM60.1727 86.1663L60.3822 86.945L60.3901 86.9427L60.1727 86.1663ZM50.156 87.4184L50.1674 86.612H50.156V87.4184ZM34.2544 87.4184V86.612L34.2468 86.6121L34.2544 87.4184ZM31.2494 88.1696L30.6925 88.7528L31.1101 89.1516L31.6221 88.8846L31.2494 88.1696ZM32.3837 64.5049L32.4033 63.6988L32.371 63.698L32.3387 63.6998L32.3837 64.5049ZM42.5256 67.5099L42.1029 68.1966L42.2973 68.3163H42.5256V67.5099ZM61.8079 67.5099V68.3163H61.8084L61.8079 67.5099ZM64.9275 68.5976L64.4258 69.2288L64.9275 68.5976ZM66.691 71.3914V72.1978H67.7048L67.4767 71.21L66.691 71.3914ZM46.7828 71.3914V70.5851V71.3914ZM46.7828 78.6535V79.4599V78.6535ZM67.5675 78.6535V79.4602L67.59 79.4596L67.5675 78.6535ZM71.8246 77.0258L71.3479 76.3755L71.3252 76.3921L71.3036 76.4104L71.8246 77.0258ZM73.4523 74.8973L73.0965 74.1737L72.8132 74.313L72.6998 74.6076L73.4523 74.8973ZM88.7278 67.3847L89.0837 68.1083L89.0976 68.1015L89.1112 68.0941L88.7278 67.3847ZM91.4824 66.7587L91.4434 67.5641L91.4629 67.565H91.4824V66.7587ZM93.1102 66.7587L93.3451 65.9873L93.2302 65.9523H93.1102V66.7587ZM94.7379 68.5116L93.9512 68.6888L93.9547 68.7043L93.9589 68.7197L94.7379 68.5116ZM93.8614 70.5149L93.4855 69.8014L93.4731 69.8082L93.8614 70.5149ZM82.4674 76.7754L82.0791 76.0687L82.0586 76.08L82.0388 76.0924L82.4674 76.7754ZM71.8246 81.909L72.0348 82.6875L72.0639 82.6796L72.0923 82.6696L71.8246 81.909ZM59.3037 85.2896L59.0935 84.5112L59.0788 84.5151L59.0642 84.5197L59.3037 85.2896ZM49.5374 86.6669L49.5546 85.8606H49.5374V86.6669ZM34.2618 86.6669L34.155 87.4662L34.2082 87.4733H34.2618V86.6669ZM31.5072 86.6669L30.9567 87.2561L31.2357 87.5168L31.6141 87.4662L31.5072 86.6669ZM16.2317 72.3931L15.6245 71.8626L15.1114 72.4499L15.6812 72.9822L16.2317 72.3931ZM7.96791 74.8973L8.52539 74.3147L7.98399 73.7966L7.42769 74.2986L7.96791 74.8973ZM22.4922 88.7955V89.6018H24.5012L23.0497 88.2129L22.4922 88.7955ZM21.7409 88.7955V87.9889L21.72 87.9894L21.7409 88.7955ZM17.1082 93.4282L16.5457 94.0059L17.8664 95.2919L17.9143 93.4492L17.1082 93.4282ZM2.83434 79.53L2.29411 78.9314L1.65553 79.5077L2.27182 80.1077L2.83434 79.53ZM28.0014 94.4299L28.5913 94.9796L29.122 94.4101L28.5716 93.8597L28.0014 94.4299ZM22.8678 99.9391L22.1764 100.354L22.7275 101.272L23.4577 100.489L22.8678 99.9391ZM21.7409 98.061L21.7636 97.2549L20.2921 97.2135L21.0495 98.4758L21.7409 98.061ZM32.3837 62.3763L32.4394 61.5719L32.3818 61.5679L32.3243 61.5722L32.3837 62.3763ZM13.1015 72.5183L12.4725 72.0137L12.017 72.5816L12.5355 73.0926L13.1015 72.5183ZM30.5056 89.6719L29.9395 90.2462L30.3698 90.6703L30.8977 90.3765L30.5056 89.6719ZM34.2618 88.7955L34.222 89.6008L34.2419 89.6018H34.2618V88.7955ZM50.2886 88.7955L50.3043 87.9891H50.2886V88.7955ZM60.681 87.4182L60.4707 86.6396L60.4559 86.6439L60.681 87.4182ZM73.2019 84.0375L73.4122 84.8163L73.4346 84.8096L73.2019 84.0375ZM83.9699 79.4048L83.5815 78.698L83.5693 78.705L83.9699 79.4048ZM95.3639 73.1443L95.7522 73.851L95.8057 73.8216L95.8542 73.7845L95.3639 73.1443ZM96.8664 68.8872L96.0692 69.0083L96.0746 69.0434L96.0829 69.0778L96.8664 68.8872ZM93.7362 65.2562L93.9734 64.4855L93.8575 64.4498H93.7362V65.2562ZM91.4824 65.2562L91.4681 66.0625H91.4824V65.2562ZM87.7262 66.1326L88.0754 66.8598L88.0958 66.8492L87.7262 66.1326ZM71.8246 73.7704L71.4755 73.0435L71.1308 73.2091L71.0409 73.5807L71.8246 73.7704ZM70.8229 75.5233L70.2616 74.9444L70.2449 74.9606L70.2291 74.9778L70.8229 75.5233ZM67.6927 76.9006V77.7069H67.6936L67.6927 76.9006ZM46.7828 76.9006V76.0943H46.7594L46.7362 76.0956L46.7828 76.9006ZM45.2803 74.8973L44.5253 74.6137L44.5205 74.6271L45.2803 74.8973ZM46.7828 74.0208L46.658 74.8174L46.72 74.8271H46.7828V74.0208ZM67.5675 74.0208L67.8974 73.285L67.74 73.2145H67.5675V74.0208ZM68.1309 74.1413V74.9477V74.1413ZM68.6944 74.0208L69.0242 74.7566L69.3255 74.6215L69.4455 74.314L68.6944 74.0208ZM68.6944 73.0191L67.8891 73.0608L67.8958 73.191L67.9432 73.3123L68.6944 73.0191ZM61.4322 66.1326V66.939H61.4333L61.4322 66.1326ZM43.2769 66.1326L42.8249 66.8004L43.0297 66.939H43.2769V66.1326ZM7.96791 71.767L8.32852 71.0458L7.8087 70.7859L7.39774 71.1969L7.96791 71.767ZM1.08141 78.6535L0.51102 78.0832L0.49585 78.0992L1.08141 78.6535ZM1.08141 80.0308L1.6681 79.4777L1.66696 79.4765L1.08141 80.0308ZM21.7409 101.942L21.1542 102.496L21.2017 102.546L21.2571 102.588L21.7409 101.942ZM23.2434 101.942L23.7272 102.588L23.7731 102.553L23.8136 102.513L23.2434 101.942ZM30.0047 95.1811L30.5749 95.7513L30.5908 95.7355L30.6057 95.7187L30.0047 95.1811ZM30.0047 93.6786L30.6061 93.1408L30.5865 93.1204L30.0047 93.6786ZM9.22 72.0175L9.80183 71.4592L9.5638 71.2111H9.22V72.0175ZM8.46875 72.0175L8.10814 72.7387L8.2784 72.8238H8.46875V72.0175ZM21.7409 95.9324L21.7006 96.7377L21.7208 96.7388H21.7409V95.9324ZM19.3619 93.4282L20.1683 93.4292L20.1683 93.4056L20.167 93.3821L19.3619 93.4282ZM21.7409 91.0492L21.6948 91.8543L21.7391 91.8568L21.7834 91.8545L21.7409 91.0492ZM24.2451 93.4282L23.4388 93.4271V93.4282H24.2451ZM48.4606 23.3495L48.9614 12.7067L47.3505 12.6309L46.8497 23.2737L48.4606 23.3495ZM47.7475 13.3641L57.7643 19.2489L58.5812 17.8584L48.5644 11.9736L47.7475 13.3641ZM57.3673 18.5153L56.8665 29.0329L58.4773 29.1096L58.9782 18.592L57.3673 18.5153ZM58.0738 28.3722L48.0571 22.6126L47.2532 24.0106L57.2699 29.7703L58.0738 28.3722ZM48.8731 15.3675L56.1352 19.6246L56.9508 18.2333L49.6887 13.9762L48.8731 15.3675ZM55.7367 18.929V27.1928H57.3494V18.929H55.7367ZM56.9418 26.4919L49.6796 22.36L48.8821 23.7617L56.1443 27.8936L56.9418 26.4919ZM50.0872 23.0609V14.6719H48.4745V23.0609H50.0872ZM45.9704 10.9156V24.8138H47.5831V10.9156H45.9704ZM46.3746 25.5127L55.5149 30.7715L56.3191 29.3737L47.1788 24.1149L46.3746 25.5127ZM55.7146 30.8531L59.0953 31.7296L59.5 30.1685L56.1193 29.292L55.7146 30.8531ZM60.104 30.949V17.5517H58.4913V30.949H60.104ZM59.6752 16.8392L47.1543 10.2031L46.3991 11.628L58.92 18.2641L59.6752 16.8392ZM63.0551 18.2674L72.4458 13.3842L71.7018 11.9534L62.3111 16.8366L63.0551 18.2674ZM71.2675 12.6688V24.1881H72.8801V12.6688H71.2675ZM71.6943 23.4766L62.3037 28.485L63.0626 29.9079L72.4532 24.8996L71.6943 23.4766ZM63.4895 29.1965V17.552H61.8768V29.1965H63.4895ZM70.2601 14.6719V23.0609H71.8728V14.6719H70.2601ZM70.6677 22.36L63.4056 26.4919L64.2031 27.8936L71.4652 23.7617L70.6677 22.36ZM64.6107 27.1928V18.929H62.998V27.1928H64.6107ZM64.2121 19.6246L71.4742 15.3675L70.6587 13.9762L63.3965 18.2333L64.2121 19.6246ZM72.7958 10.215L61.1513 16.8511L61.9498 18.2522L73.5943 11.6161L72.7958 10.215ZM60.7442 17.5517V30.949H62.3569V17.5517H60.7442ZM61.9264 31.6624L73.5709 25.5272L72.8192 24.1004L61.1747 30.2357L61.9264 31.6624ZM74.0014 24.8138V10.9156H72.3887V24.8138H74.0014ZM51.1899 9.10846L61.0814 3.34884L60.2699 1.95519L50.3784 7.71482L51.1899 9.10846ZM60.2483 3.3358L69.2634 8.97021L70.1181 7.60265L61.103 1.96824L60.2483 3.3358ZM69.2867 7.5886L59.7708 13.0978L60.5789 14.4935L70.0948 8.98426L69.2867 7.5886ZM60.5759 13.0961L51.1852 7.71211L50.3831 9.11117L59.7738 14.4952L60.5759 13.0961ZM59.7793 4.98034L67.0414 9.11225L67.8389 7.71055L60.5768 3.57865L59.7793 4.98034ZM67.0601 7.70026L59.798 11.5817L60.5581 13.004L67.8203 9.12254L67.0601 7.70026ZM60.5768 11.592L53.3147 7.46014L52.5172 8.86183L59.7793 12.9937L60.5768 11.592ZM53.3147 8.86183L60.5768 4.72992L59.7793 3.32823L52.5172 7.46014L53.3147 8.86183ZM59.7732 0.702368L48.1287 7.46366L48.9385 8.8583L60.5829 2.09701L59.7732 0.702368ZM48.1287 8.8583L59.7732 15.6196L60.5829 14.225L48.9385 7.46366L48.1287 8.8583ZM60.5716 15.6261L72.216 9.1152L71.429 7.7076L59.7845 14.2185L60.5716 15.6261ZM72.2274 7.71408L60.5829 0.952786L59.7732 2.34742L71.4176 9.10872L72.2274 7.71408ZM60.9844 1.6501V1.39969H59.3717V1.6501H60.9844ZM65.5897 34.1518L75.6065 28.3922L74.8026 26.9941L64.7858 32.7538L65.5897 34.1518ZM74.7704 28.3727L83.7854 34.1323L84.6537 32.7733L75.6386 27.0137L74.7704 28.3727ZM83.8225 32.751L74.3066 38.135L75.1007 39.5386L84.6166 34.1546L83.8225 32.751ZM75.1007 38.135L65.5848 32.751L64.7907 34.1546L74.3066 39.5386L75.1007 38.135ZM74.1739 30.0224L81.436 34.1543L82.2335 32.7526L74.9714 28.6207L74.1739 30.0224ZM81.4547 32.7423L74.1925 36.6238L74.9527 38.0461L82.2148 34.1646L81.4547 32.7423ZM74.9857 36.6424L67.8488 32.3853L67.0226 33.7703L74.1595 38.0274L74.9857 36.6424ZM67.8397 33.7757L74.9766 29.6438L74.1686 28.2481L67.0317 32.38L67.8397 33.7757ZM74.1701 25.743L62.6509 32.3791L63.4559 33.7765L74.9751 27.1404L74.1701 25.743ZM62.6452 33.7732L74.1644 40.5345L74.9808 39.1437L63.4615 32.3824L62.6452 33.7732ZM74.9775 40.5364L86.622 33.7751L85.8122 32.3805L74.1677 39.1418L74.9775 40.5364ZM86.6163 32.3773L74.9719 25.7412L74.1734 27.1423L85.8178 33.7784L86.6163 32.3773ZM48.5245 43.311L58.0404 38.4278L57.3041 36.993L47.7882 41.8762L48.5245 43.311ZM56.8659 37.7104V49.3549H58.4786V37.7104H56.8659ZM57.3041 48.6375L47.7882 53.5206L48.5245 54.9554L58.0404 50.0723L57.3041 48.6375ZM48.9627 54.238V42.5936H47.35V54.238H48.9627ZM55.7367 39.8391V48.1029H57.3494V39.8391H55.7367ZM56.1352 47.4073L48.8731 51.6644L49.6887 53.0557L56.9508 48.7986L56.1352 47.4073ZM50.0872 52.36V43.971H48.4745V52.36H50.0872ZM49.6796 44.6719L56.9418 40.54L56.1443 39.1383L48.8821 43.2702L49.6796 44.6719ZM58.9145 35.2481L46.3936 42.0094L47.1598 43.4284L59.6808 36.6671L58.9145 35.2481ZM45.9704 42.7189V56.1163H47.5831V42.7189H45.9704ZM47.1373 56.8375L59.6582 50.5771L58.937 49.1346L46.4161 55.3951L47.1373 56.8375ZM60.104 49.8559V35.9576H58.4913V49.8559H60.104ZM77.5749 43.3085L86.9656 38.4254L86.2215 36.9946L76.8309 41.8777L77.5749 43.3085ZM85.7872 37.71V49.3544H87.3999V37.71H85.7872ZM86.2215 48.639L76.8309 53.5222L77.5749 54.953L86.9656 50.0698L86.2215 48.639ZM78.0092 54.2376V42.5931H76.3965V54.2376H78.0092ZM84.6625 39.8389V48.1027H86.2751V39.8389H84.6625ZM85.061 47.407L77.7989 51.6641L78.6145 53.0554L85.8766 48.7983L85.061 47.407ZM79.013 52.3598V43.9708H77.4003V52.3598H79.013ZM78.6054 44.6716L85.8676 40.5397L85.07 39.138L77.8079 43.2699L78.6054 44.6716ZM87.3177 35.2601L75.6732 42.0214L76.483 43.416L88.1275 36.6547L87.3177 35.2601ZM75.2718 42.7187V56.1161H76.8845V42.7187H75.2718ZM76.46 56.8263L88.1044 50.5658L87.3407 49.1454L75.6963 55.4058L76.46 56.8263ZM88.5289 49.8556V35.9574H86.9162V49.8556H88.5289ZM62.9876 48.3921L63.4884 37.8745L61.8776 37.7978L61.3767 48.3153L62.9876 48.3921ZM62.2811 38.5352L72.2978 44.2948L73.1017 42.8967L63.085 37.1371L62.2811 38.5352ZM71.8943 43.5578L71.3935 54.2006L73.0044 54.2764L73.5052 43.6336L71.8943 43.5578ZM72.6074 53.5433L62.5906 47.6585L61.7737 49.0489L71.7905 54.9338L72.6074 53.5433ZM63.4056 40.54L70.6677 44.6719L71.4652 43.2702L64.2031 39.1383L63.4056 40.54ZM70.2601 43.971V52.36H71.8728V43.971H70.2601ZM71.4742 51.6644L64.2121 47.4073L63.3965 48.7986L70.6587 53.0557L71.4742 51.6644ZM64.6107 48.1029V39.8391H62.998V48.1029H64.6107ZM60.7442 35.9576V49.8559H62.3569V35.9576H60.7442ZM61.1457 50.5532L72.7901 57.3145L73.5999 55.9198L61.9555 49.1585L61.1457 50.5532ZM74.0014 56.6171V42.7189H72.3887V56.6171H74.0014ZM73.5999 42.0216L61.9555 35.2603L61.1457 36.6549L72.7901 43.4162L73.5999 42.0216ZM33.9336 48.3921L34.4344 37.8745L32.8235 37.7978L32.3227 48.3153L33.9336 48.3921ZM33.227 38.5352L43.2438 44.2948L44.0476 42.8967L34.0309 37.1371L33.227 38.5352ZM42.8399 43.5673L42.4642 54.2101L44.0759 54.267L44.4515 43.6242L42.8399 43.5673ZM43.6748 53.5411L33.5328 47.6563L32.7234 49.0511L42.8654 54.936L43.6748 53.5411ZM33.8561 40.54L41.1182 44.6719L41.9157 43.2702L34.6536 39.1383L33.8561 40.54ZM40.7106 43.971V52.36H42.3233V43.971H40.7106ZM41.9247 51.6644L34.6626 47.4073L33.847 48.7986L41.1092 53.0557L41.9247 51.6644ZM35.0612 48.1029V39.8391H33.4485V48.1029H35.0612ZM31.3199 35.9576V49.8559H32.9326V35.9576H31.3199ZM31.7214 50.5532L43.3658 57.3145L44.1756 55.9198L32.5312 49.1585L31.7214 50.5532ZM44.5771 56.6171V42.7189H42.9644V56.6171H44.5771ZM44.1756 42.0216L32.5312 35.2603L31.7214 36.6549L43.3658 43.4162L44.1756 42.0216ZM36.6663 34.1518L46.6831 28.3922L45.8792 26.9941L35.8625 32.7538L36.6663 34.1518ZM45.8311 28.3622L52.7176 32.9949L53.6177 31.6569L46.7312 27.0241L45.8311 28.3622ZM52.7528 33.0173L54.6309 34.1442L55.4606 32.7614L53.5825 31.6345L52.7528 33.0173ZM54.6447 32.7533L45.254 38.1373L46.0562 39.5363L55.4468 34.1523L54.6447 32.7533ZM46.0562 38.1373L36.6655 32.7533L35.8633 34.1523L45.254 39.5363L46.0562 38.1373ZM45.2547 30.0217L52.2664 34.0283L53.0665 32.6281L46.0548 28.6214L45.2547 30.0217ZM52.2664 32.6281L45.2547 36.6348L46.0548 38.035L53.0665 34.0283L52.2664 32.6281ZM46.0625 36.6393L38.8004 32.3822L37.9848 33.7735L45.2469 38.0306L46.0625 36.6393ZM38.7913 33.7787L46.0535 29.6468L45.256 28.2451L37.9938 32.377L38.7913 33.7787ZM45.2321 25.755L33.8381 32.7667L34.6833 34.1402L46.0773 27.1285L45.2321 25.755ZM33.8558 34.1508L45.5002 40.9121L46.31 39.5174L34.6656 32.7561L33.8558 34.1508ZM46.31 40.9121L57.9545 34.1508L57.1447 32.7561L45.5002 39.5174L46.31 40.9121ZM57.9496 32.7534L54.4438 30.75L53.6437 32.1502L57.1495 34.1536L57.9496 32.7534ZM54.4426 30.7493L46.304 26.1166L45.5062 27.5181L53.6448 32.1509L54.4426 30.7493ZM46.576 26.3701L46.3256 25.9945L44.9838 26.889L45.2342 27.2646L46.576 26.3701ZM1.76408 80.1056L8.65059 73.3443L7.52076 72.1935L0.634249 78.9548L1.76408 80.1056ZM7.51385 73.3374L29.0498 94.9986L30.1935 93.8616L8.6575 72.2004L7.51385 73.3374ZM29.0568 93.8546L22.2955 100.491L23.4252 101.642L30.1865 95.0056L29.0568 93.8546ZM23.4289 100.494L1.76768 78.9584L0.63065 80.102L22.2918 101.638L23.4289 100.494ZM21.7061 89.1167C20.582 89.1548 19.5142 89.6184 18.7189 90.4138L19.8592 91.5541C20.3655 91.0478 21.0452 90.7527 21.7608 90.7284L21.7061 89.1167ZM18.7189 90.4138C17.9235 91.2092 17.4599 92.2769 17.4217 93.4011L19.0335 93.4557C19.0578 92.7401 19.3529 92.0605 19.8592 91.5541L18.7189 90.4138ZM17.4213 93.4284C17.4213 94.5721 17.8756 95.6689 18.6843 96.4776L19.8246 95.3372C19.3184 94.831 19.034 94.1444 19.034 93.4284H17.4213ZM18.6843 96.4776C19.493 97.2863 20.5898 97.7406 21.7335 97.7406V96.1279C21.0175 96.1279 20.3309 95.8435 19.8246 95.3372L18.6843 96.4776ZM21.703 97.74C22.2791 97.7618 22.8534 97.6644 23.3901 97.4539L22.8012 95.9525C22.4712 96.082 22.1181 96.1419 21.7639 96.1285L21.703 97.74ZM23.3901 97.4539C23.9267 97.2433 24.4141 96.9243 24.8217 96.5167L23.6814 95.3763C23.4308 95.6269 23.1311 95.8231 22.8012 95.9525L23.3901 97.4539ZM24.8217 96.5167C25.2294 96.109 25.5484 95.6216 25.7589 95.085L24.2576 94.4961C24.1282 94.826 23.932 95.1257 23.6814 95.3763L24.8217 96.5167ZM25.7589 95.085C25.9694 94.5483 26.0669 93.974 26.0451 93.398L24.4336 93.4588C24.4469 93.813 24.387 94.1661 24.2576 94.4961L25.7589 95.085ZM26.0457 93.4284C26.0457 92.2847 25.5914 91.1879 24.7827 90.3792L23.6423 91.5196C24.1486 92.0258 24.433 92.7124 24.433 93.4284H26.0457ZM24.7827 90.3792C23.974 89.5705 22.8771 89.1162 21.7335 89.1162V90.7289C22.4494 90.7289 23.1361 91.0133 23.6423 91.5196L24.7827 90.3792ZM15.2051 72.7971C19.5833 67.7605 25.7782 64.6631 32.4343 64.1825L32.3182 62.574C25.2367 63.0853 18.646 66.3806 13.988 71.739L15.2051 72.7971ZM32.3632 64.1844C35.8486 64.2408 39.254 65.2375 42.2197 67.0693L43.0671 65.6972C39.8543 63.7128 36.1651 62.633 32.3893 62.572L32.3632 64.1844ZM42.6434 67.1896H61.8004V65.5769H42.6434V67.1896ZM61.8019 67.1896C63.1605 67.187 64.4687 67.7035 65.4592 68.6333L66.563 67.4575C65.2728 66.2463 63.5686 65.5736 61.7989 65.5769L61.8019 67.1896ZM65.4592 68.6333C66.4497 69.5632 67.0477 70.8362 67.1308 72.1922L68.7405 72.0935C68.6321 70.3271 67.8533 68.6688 66.563 67.4575L65.4592 68.6333ZM67.9071 71.337L46.7467 72.0883L46.8039 73.6999L67.9643 72.9487L67.9071 71.337ZM46.7753 72.0878C45.8973 72.0878 45.0553 72.4365 44.4344 73.0574L45.5748 74.1977C45.8932 73.8793 46.325 73.7004 46.7753 73.7004V72.0878ZM44.4344 73.0574C43.8136 73.6782 43.4648 74.5203 43.4648 75.3983H45.0775C45.0775 74.948 45.2564 74.5161 45.5748 74.1977L44.4344 73.0574ZM43.4648 75.3983C43.4648 76.2763 43.8136 77.1183 44.4344 77.7392L45.5748 76.5988C45.2564 76.2804 45.0775 75.8486 45.0775 75.3983H43.4648ZM44.4344 77.7392C45.0553 78.36 45.8973 78.7088 46.7753 78.7088V77.0961C46.325 77.0961 45.8932 76.9172 45.5748 76.5988L44.4344 77.7392ZM46.7753 78.7088H67.56V77.0961H46.7753V78.7088ZM67.5107 78.7073C68.4102 78.7625 69.311 78.6245 70.1528 78.3026L69.5768 76.7963C68.95 77.036 68.2792 77.1387 67.6094 77.0976L67.5107 78.7073ZM70.1528 78.3026C70.9945 77.9808 71.7577 77.4825 72.3909 76.8413L71.2434 75.7082C70.7719 76.1856 70.2036 76.5567 69.5768 76.7963L70.1528 78.3026ZM72.4341 76.794C73.0262 76.0905 73.4957 75.2924 73.8228 74.4331L72.3157 73.8593C72.0529 74.5495 71.6758 75.1905 71.2003 75.7555L72.4341 76.794ZM73.4132 74.8755L88.8139 67.6134L88.1261 66.1547L72.7253 73.4169L73.4132 74.8755ZM88.8272 67.607C89.7268 67.1625 90.7177 66.9338 91.7211 66.9391L91.7297 65.3265C90.4756 65.3198 89.2372 65.6056 88.1128 66.1611L88.8272 67.607ZM91.7254 66.9392H93.6036V65.3265H91.7254V66.9392ZM93.4654 66.9272C93.9212 67.0065 94.3374 67.2359 94.6478 67.5789L95.8436 66.497C95.2919 65.8871 94.552 65.4793 93.7417 65.3384L93.4654 66.9272ZM94.6478 67.5789C94.9582 67.922 95.1449 68.359 95.1783 68.8204L96.7868 68.704C96.7274 67.8837 96.3954 67.1068 95.8436 66.497L94.6478 67.5789ZM95.2023 68.9658C95.3131 69.3906 95.2772 69.8403 95.1004 70.2422L96.5765 70.8917C96.8997 70.1572 96.9653 69.3351 96.7628 68.5587L95.2023 68.9658ZM95.1004 70.2422C94.9236 70.644 94.6162 70.9744 94.2282 71.1797L94.9823 72.6052C95.6916 72.23 96.2534 71.6262 96.5765 70.8917L95.1004 70.2422ZM94.2169 71.1857L82.8229 77.4462L83.5995 78.8596L94.9935 72.5991L94.2169 71.1857ZM82.7977 77.4607C79.5703 79.3887 76.0995 80.8762 72.4775 81.8836L72.9097 83.4373C76.6702 82.3914 80.2739 80.8469 83.6247 78.8451L82.7977 77.4607ZM72.4762 81.8839L59.9553 85.3898L60.3901 86.9427L72.911 83.4369L72.4762 81.8839ZM59.9632 85.3876C56.7702 86.2468 53.4735 86.6589 50.1674 86.6121L50.1446 88.2246C53.5999 88.2735 57.0453 87.8428 60.3822 86.9449L59.9632 85.3876ZM50.156 86.612H34.2544V88.2247H50.156V86.612ZM34.2468 86.6121C33.0727 86.6231 31.9178 86.9118 30.8766 87.4546L31.6221 88.8846C32.4377 88.4595 33.3423 88.2333 34.262 88.2247L34.2468 86.6121ZM31.8062 87.5865L15.1534 71.6849L14.0397 72.8512L30.6925 88.7528L31.8062 87.5865ZM32.3641 65.311C35.8085 65.3946 39.169 66.3903 42.1029 68.1966L42.9484 66.8233C39.7716 64.8675 36.1328 63.7893 32.4033 63.6988L32.3641 65.311ZM42.5256 68.3163H61.8079V66.7036H42.5256V68.3163ZM61.8084 68.3163C62.7589 68.3157 63.6816 68.6374 64.4258 69.2288L65.4292 67.9664C64.3995 67.1479 63.1227 66.7027 61.8073 66.7036L61.8084 68.3163ZM64.4258 69.2288C65.1699 69.8203 65.6915 70.6466 65.9054 71.5728L67.4767 71.21C67.1807 69.9283 66.459 68.7849 65.4292 67.9664L64.4258 69.2288ZM66.691 70.5851H46.7828V72.1978H66.691V70.5851ZM46.7828 70.5851C45.6059 70.5851 44.4772 71.0526 43.645 71.8848L44.7854 73.0251C45.3151 72.4954 46.0336 72.1978 46.7828 72.1978V70.5851ZM43.645 71.8848C42.8129 72.7169 42.3453 73.8456 42.3453 75.0225H43.958C43.958 74.2733 44.2556 73.5548 44.7854 73.0251L43.645 71.8848ZM42.3453 75.0225C42.3453 76.1994 42.8129 77.328 43.645 78.1602L44.7854 77.0199C44.2556 76.4901 43.958 75.7716 43.958 75.0225H42.3453ZM43.645 78.1602C44.4772 78.9924 45.6059 79.4599 46.7828 79.4599V77.8472C46.0336 77.8472 45.3151 77.5496 44.7854 77.0199L43.645 78.1602ZM46.7828 79.4599H67.5675V77.8472H46.7828V79.4599ZM67.59 79.4596C69.3356 79.4108 71.0127 78.7696 72.3456 77.6413L71.3036 76.4104C70.2502 77.3021 68.9247 77.809 67.545 77.8475L67.59 79.4596ZM72.3013 77.6762C73.1612 77.0459 73.8219 76.1819 74.2049 75.1869L72.6998 74.6076C72.4278 75.3142 71.9586 75.9279 71.3479 76.3755L72.3013 77.6762ZM73.8082 75.6208L89.0837 68.1083L88.372 66.6611L73.0965 74.1737L73.8082 75.6208ZM89.1112 68.0941C89.8257 67.708 90.6322 67.5247 91.4434 67.5641L91.5215 65.9533C90.4165 65.8997 89.3178 66.1494 88.3445 66.6753L89.1112 68.0941ZM91.4824 67.565H93.1102V65.9523H91.4824V67.565ZM92.8752 67.53C93.141 67.611 93.3805 67.7608 93.5695 67.9643L94.7513 66.867C94.3684 66.4547 93.8833 66.1512 93.3451 65.9873L92.8752 67.53ZM93.5695 67.9643C93.7585 68.1679 93.8902 68.4178 93.9512 68.6888L95.5245 68.3344C95.4009 67.7856 95.1341 67.2792 94.7513 66.867L93.5695 67.9643ZM93.9589 68.7197C94.0142 68.927 93.9976 69.1469 93.9116 69.3435L95.3891 69.9899C95.6215 69.4585 95.6666 68.8638 95.5169 68.3035L93.9589 68.7197ZM93.9116 69.3435C93.8256 69.54 93.6754 69.7015 93.4856 69.8015L94.2373 71.2283C94.7504 70.958 95.1566 70.5213 95.3891 69.9899L93.9116 69.3435ZM93.4731 69.8082L82.0791 76.0687L82.8557 77.4821L94.2497 71.2216L93.4731 69.8082ZM82.0388 76.0924C78.7428 78.1607 75.2273 79.8565 71.5569 81.1484L72.0923 82.6696C75.8754 81.338 79.4989 79.5902 82.896 77.4584L82.0388 76.0924ZM71.6144 81.1305L59.0935 84.5112L59.5139 86.0681L72.0348 82.6875L71.6144 81.1305ZM59.0642 84.5197C55.9874 85.4767 52.776 85.9296 49.5546 85.8608L49.5201 87.4731C52.9155 87.5456 56.3003 87.0683 59.5432 86.0596L59.0642 84.5197ZM49.5374 85.8606H34.2618V87.4733H49.5374V85.8606ZM34.3687 85.8677C33.3836 85.736 32.3854 85.736 31.4004 85.8677L31.6141 87.4662C32.4573 87.3534 33.3118 87.3534 34.155 87.4662L34.3687 85.8677ZM32.0578 86.0778L16.7822 71.8039L15.6812 72.9822L30.9567 87.2561L32.0578 86.0778ZM16.839 72.9236C18.7991 70.6798 21.188 68.8504 23.8652 67.5429L23.1575 66.0938C20.2872 67.4956 17.726 69.4569 15.6245 71.8626L16.839 72.9236ZM23.8652 67.5429C26.5424 66.2354 29.4539 65.4763 32.4287 65.31L32.3387 63.6998C29.1494 63.8781 26.0278 64.692 23.1575 66.0938L23.8652 67.5429ZM7.41044 75.4799L21.9347 89.3781L23.0497 88.2129L8.52539 74.3147L7.41044 75.4799ZM22.4922 87.9891H21.7409V89.6018H22.4922V87.9891ZM21.72 87.9894C20.2947 88.0264 18.9381 88.6091 17.93 89.6173L19.0703 90.7576C19.7863 90.0417 20.7497 89.6279 21.7619 89.6015L21.72 87.9894ZM17.93 89.6173C16.9218 90.6254 16.3391 91.982 16.3021 93.4073L17.9143 93.4492C17.9406 92.437 18.3544 91.4736 19.0703 90.7576L17.93 89.6173ZM17.6707 92.8505L3.39686 78.9523L2.27182 80.1077L16.5457 94.0059L17.6707 92.8505ZM3.37456 80.1286L8.50814 75.4959L7.42769 74.2986L2.29411 78.9314L3.37456 80.1286ZM25.9287 93.4975L27.4312 95.0001L28.5716 93.8597L27.069 92.3572L25.9287 93.4975ZM27.4115 93.8802L22.2779 99.3894L23.4577 100.489L28.5913 94.9796L27.4115 93.8802ZM23.5592 99.5242L22.4324 97.6461L21.0495 98.4758L22.1764 100.354L23.5592 99.5242ZM21.7182 98.867C22.4409 98.8874 23.1603 98.76 23.8321 98.4928L23.236 96.9943C22.7681 97.1804 22.267 97.2691 21.7636 97.2549L21.7182 98.867ZM23.8321 98.4928C24.5039 98.2255 25.1141 97.824 25.6254 97.3127L24.4851 96.1724C24.1289 96.5285 23.7039 96.8081 23.236 96.9943L23.8321 98.4928ZM25.6254 97.3127C26.1367 96.8014 26.5382 96.1912 26.8055 95.5194L25.307 94.9233C25.1208 95.3912 24.8412 95.8163 24.4851 96.1724L25.6254 97.3127ZM26.8055 95.5194C27.0727 94.8476 27.2001 94.1282 27.1797 93.4055L25.5676 93.4509C25.5818 93.9543 25.4931 94.4553 25.307 94.9233L26.8055 95.5194ZM32.3243 61.5722C28.4757 61.8563 24.7269 62.93 21.3115 64.7265L22.0622 66.1538C25.2816 64.4604 28.8153 63.4483 32.4431 63.1805L32.3243 61.5722ZM21.3115 64.7265C17.8961 66.5229 14.8872 69.0035 12.4725 72.0137L13.7305 73.0228C16.0066 70.1854 18.8428 67.8471 22.0622 66.1538L21.3115 64.7265ZM12.5355 73.0926L29.9395 90.2462L31.0716 89.0977L13.6675 71.944L12.5355 73.0926ZM30.8977 90.3765C31.9115 89.8123 33.0632 89.5435 34.222 89.6008L34.3017 87.9901C32.8417 87.9179 31.3907 88.2565 30.1134 88.9674L30.8977 90.3765ZM34.2618 89.6018H50.2886V87.9891H34.2618V89.6018ZM50.273 89.6017C53.8682 89.6714 57.4532 89.1963 60.9061 88.1925L60.4559 86.6439C57.1593 87.6023 53.7366 88.0559 50.3043 87.9893L50.273 89.6017ZM60.8912 88.1967L73.4121 84.816L72.9917 83.2591L60.4708 86.6397L60.8912 88.1967ZM73.4346 84.8096C77.2464 83.6608 80.9153 82.0824 84.3705 80.1046L83.5693 78.705C80.2202 80.622 76.664 82.152 72.9692 83.2655L73.4346 84.8096ZM84.3582 80.1115L95.7522 73.851L94.9756 72.4376L83.5816 78.6981L84.3582 80.1115ZM95.8542 73.7845C96.6148 73.202 97.1895 72.4109 97.5084 71.5075L95.9876 70.9707C95.7729 71.5791 95.3858 72.1119 94.8736 72.5042L95.8542 73.7845ZM97.5084 71.5075C97.8272 70.6041 97.8764 69.6275 97.6499 68.6966L96.0829 69.0778C96.2354 69.7047 96.2023 70.3624 95.9876 70.9707L97.5084 71.5075ZM97.6636 68.7661C97.5135 67.7777 97.0876 66.8518 96.4348 66.0945L95.2134 67.1475C95.668 67.6749 95.9647 68.3199 96.0692 69.0083L97.6636 68.7661ZM96.4348 66.0945C95.7821 65.3373 94.9289 64.7796 93.9734 64.4855L93.499 66.0268C94.1645 66.2317 94.7587 66.6201 95.2134 67.1475L96.4348 66.0945ZM93.7362 64.4498H91.4824V66.0625H93.7362V64.4498ZM91.4968 64.4499C90.058 64.4244 88.6354 64.7563 87.3565 65.416L88.0958 66.8492C89.1375 66.3119 90.2962 66.0416 91.4681 66.0624L91.4968 64.4499ZM87.3771 65.4058L71.4755 73.0435L72.1737 74.4972L88.0753 66.8595L87.3771 65.4058ZM71.0409 73.5807C70.9153 74.0998 70.6451 74.5726 70.2616 74.9444L71.3842 76.1022C71.9866 75.5182 72.411 74.7755 72.6083 73.96L71.0409 73.5807ZM70.2291 74.9778C69.9063 75.3292 69.5142 75.6099 69.0774 75.802L69.7269 77.2782C70.3678 76.9962 70.9432 76.5844 71.4168 76.0688L70.2291 74.9778ZM69.0774 75.802C68.6407 75.9942 68.1689 76.0937 67.6918 76.0943L67.6936 77.7069C68.3938 77.7061 69.0861 77.5601 69.7269 77.2782L69.0774 75.802ZM67.6927 76.0943H46.7828V77.7069H67.6927V76.0943ZM46.7362 76.0956C46.6215 76.1023 46.5069 76.0804 46.4027 76.032L45.7235 77.4947C46.0691 77.6552 46.449 77.7276 46.8294 77.7056L46.7362 76.0956ZM46.4027 76.032C46.2985 75.9836 46.2079 75.9102 46.139 75.8183L44.8489 76.7859C45.0775 77.0907 45.3779 77.3342 45.7235 77.4947L46.4027 76.032ZM46.139 75.8183C46.0701 75.7264 46.025 75.6189 46.0077 75.5053L44.4133 75.7478C44.4706 76.1245 44.6202 76.4811 44.8489 76.7859L46.139 75.8183ZM46.0077 75.5053C45.9904 75.3917 46.0015 75.2756 46.04 75.1674L44.5205 74.6271C44.3929 74.9861 44.356 75.3711 44.4133 75.7478L46.0077 75.5053ZM46.0351 75.1808C46.0813 75.0578 46.1685 74.9545 46.2819 74.8883L45.4693 73.4953C45.0354 73.7485 44.702 74.1435 44.5254 74.6138L46.0351 75.1808ZM46.2819 74.8883C46.3954 74.8221 46.5282 74.7971 46.658 74.8174L46.9075 73.2242C46.4112 73.1464 45.9033 73.2422 45.4693 73.4953L46.2819 74.8883ZM46.7828 74.8271H67.5675V73.2145H46.7828V74.8271ZM67.2376 74.7566C67.5186 74.8825 67.823 74.9477 68.1309 74.9477V73.335C68.0504 73.335 67.9708 73.3179 67.8974 73.285L67.2376 74.7566ZM68.1309 74.9477C68.4388 74.9477 68.7433 74.8825 69.0242 74.7566L68.3645 73.285C68.291 73.3179 68.2114 73.335 68.1309 73.335V74.9477ZM69.4455 74.314C69.6448 73.8034 69.6448 73.2365 69.4455 72.7259L67.9432 73.3123C67.9953 73.4458 67.9953 73.5941 67.9432 73.7276L69.4455 74.314ZM69.4996 72.9774C69.3926 70.9107 68.4955 68.9641 66.9938 67.5401L65.8841 68.7103C67.0857 69.8497 67.8035 71.4072 67.8891 73.0608L69.4996 72.9774ZM66.9938 67.5401C65.4921 66.116 63.5007 65.3235 61.4312 65.3263L61.4333 66.939C63.0892 66.9367 64.6826 67.5709 65.8841 68.7103L66.9938 67.5401ZM61.4322 65.3263H43.2769V66.939H61.4322V65.3263ZM43.7289 65.4649C40.3748 63.1945 36.48 61.8515 32.4394 61.5719L32.328 63.1808C36.0849 63.4407 39.7063 64.6894 42.8249 66.8004L43.7289 65.4649ZM7.39774 71.1969L0.511234 78.0834L1.65158 79.2237L8.53809 72.3372L7.39774 71.1969ZM0.49585 78.0992C0.177952 78.435 0.000787435 78.8798 0.000787435 79.3422H1.61348C1.61348 79.2922 1.63262 79.2442 1.66696 79.2079L0.49585 78.0992ZM0.000787435 79.3422C0.000787435 79.8046 0.177947 80.2494 0.49585 80.5852L1.66696 79.4765C1.63262 79.4402 1.61348 79.3921 1.61348 79.3422H0.000787435ZM0.494718 80.584L21.1542 102.496L22.3276 101.389L1.66809 79.4777L0.494718 80.584ZM21.2571 102.588C21.6134 102.855 22.0468 102.999 22.4922 102.999V101.387C22.3957 101.387 22.3019 101.355 22.2247 101.297L21.2571 102.588ZM22.4922 102.999C22.9376 102.999 23.3709 102.855 23.7272 102.588L22.7596 101.297C22.6825 101.355 22.5886 101.387 22.4922 101.387V102.999ZM23.8136 102.513L30.5749 95.7513L29.4346 94.611L22.6733 101.372L23.8136 102.513ZM30.6057 95.7187C30.9228 95.3643 31.098 94.9054 31.098 94.4299H29.4853C29.4853 94.5087 29.4563 94.5848 29.4037 94.6436L30.6057 95.7187ZM31.098 94.4299C31.098 93.9544 30.9228 93.4955 30.6057 93.1411L29.4037 94.2162C29.4563 94.275 29.4853 94.3511 29.4853 94.4299H31.098ZM30.5865 93.1204L9.80183 71.4592L8.63818 72.5757L29.4229 94.2369L30.5865 93.1204ZM9.22 71.2111H8.46875V72.8238H9.22V71.2111ZM8.82936 71.2962L8.32852 71.0458L7.6073 72.4883L8.10814 72.7387L8.82936 71.2962ZM21.7812 95.1271C21.3458 95.1053 20.9355 94.9168 20.6352 94.6007L19.466 95.7115C20.0515 96.3278 20.8516 96.6952 21.7006 96.7377L21.7812 95.1271ZM20.6352 94.6007C20.3349 94.2847 20.1677 93.8652 20.1683 93.4292L18.5556 93.4272C18.5545 94.2773 18.8805 95.0952 19.466 95.7115L20.6352 94.6007ZM20.167 93.3821C20.1553 93.1784 20.1868 92.9746 20.2595 92.7839L18.7525 92.2096C18.5989 92.6127 18.5323 93.0437 18.5569 93.4743L20.167 93.3821ZM20.2595 92.7839C20.3321 92.5933 20.4443 92.4201 20.5885 92.2758L19.4482 91.1355C19.1432 91.4405 18.9061 91.8066 18.7525 92.2096L20.2595 92.7839ZM20.5885 92.2758C20.7328 92.1316 20.906 92.0194 21.0966 91.9468L20.5223 90.4398C20.1192 90.5934 19.7532 90.8305 19.4482 91.1355L20.5885 92.2758ZM21.0966 91.9468C21.2872 91.8741 21.4911 91.8426 21.6948 91.8543L21.787 90.2442C21.3564 90.2195 20.9254 90.2862 20.5223 90.4398L21.0966 91.9468ZM21.7834 91.8545C21.9967 91.8432 22.2102 91.8756 22.4106 91.9496L22.969 90.4366C22.563 90.2868 22.1307 90.2212 21.6985 90.244L21.7834 91.8545ZM22.4106 91.9496C22.6111 92.0236 22.7944 92.1376 22.9493 92.2848L24.06 91.1156C23.7462 90.8175 23.375 90.5865 22.969 90.4366L22.4106 91.9496ZM22.9493 92.2848C23.1042 92.4319 23.2275 92.6091 23.3116 92.8055L24.794 92.1704C24.6235 91.7725 24.3738 91.4137 24.06 91.1156L22.9493 92.2848ZM23.3116 92.8055C23.3958 93.0019 23.4391 93.2134 23.4388 93.4271L25.0514 93.4293C25.052 92.9966 24.9644 92.5682 24.794 92.1704L23.3116 92.8055ZM23.4388 93.4282C23.4388 93.8785 23.2599 94.3104 22.9415 94.6288L24.0818 95.7691C24.7027 95.1483 25.0514 94.3062 25.0514 93.4282H23.4388ZM22.9415 94.6288C22.6231 94.9472 22.1912 95.1261 21.7409 95.1261V96.7388C22.6189 96.7388 23.461 96.39 24.0818 95.7691L22.9415 94.6288Z" fill="url(#paint10_linear_1_7684)" mask="url(#path-1-outside-1_1_7684)"/>
<defs>
<linearGradient id="paint0_linear_1_7684" x1="96.9835" y1="51.7963" x2="0.807133" y2="51.7963" gradientUnits="userSpaceOnUse">
<stop stop-color="#C20403"/>
<stop offset="1" stop-color="#EC6D2B"/>
</linearGradient>
<linearGradient id="paint1_linear_1_7684" x1="96.9835" y1="51.7963" x2="0.807133" y2="51.7963" gradientUnits="userSpaceOnUse">
<stop stop-color="#C20403"/>
<stop offset="1" stop-color="#EC6D2B"/>
</linearGradient>
<linearGradient id="paint2_linear_1_7684" x1="96.9835" y1="51.7963" x2="0.807133" y2="51.7963" gradientUnits="userSpaceOnUse">
<stop stop-color="#C20403"/>
<stop offset="1" stop-color="#EC6D2B"/>
</linearGradient>
<linearGradient id="paint3_linear_1_7684" x1="96.9835" y1="51.7963" x2="0.807133" y2="51.7963" gradientUnits="userSpaceOnUse">
<stop stop-color="#C20403"/>
<stop offset="1" stop-color="#EC6D2B"/>
</linearGradient>
<linearGradient id="paint4_linear_1_7684" x1="96.9835" y1="51.7963" x2="0.807133" y2="51.7963" gradientUnits="userSpaceOnUse">
<stop stop-color="#C20403"/>
<stop offset="1" stop-color="#EC6D2B"/>
</linearGradient>
<linearGradient id="paint5_linear_1_7684" x1="96.9835" y1="51.7963" x2="0.807133" y2="51.7963" gradientUnits="userSpaceOnUse">
<stop stop-color="#C20403"/>
<stop offset="1" stop-color="#EC6D2B"/>
</linearGradient>
<linearGradient id="paint6_linear_1_7684" x1="96.9835" y1="51.7963" x2="0.807133" y2="51.7963" gradientUnits="userSpaceOnUse">
<stop stop-color="#C20403"/>
<stop offset="1" stop-color="#EC6D2B"/>
</linearGradient>
<linearGradient id="paint7_linear_1_7684" x1="96.9835" y1="51.7963" x2="0.807133" y2="51.7963" gradientUnits="userSpaceOnUse">
<stop stop-color="#C20403"/>
<stop offset="1" stop-color="#EC6D2B"/>
</linearGradient>
<linearGradient id="paint8_linear_1_7684" x1="96.9835" y1="51.7963" x2="0.807133" y2="51.7963" gradientUnits="userSpaceOnUse">
<stop stop-color="#C20403"/>
<stop offset="1" stop-color="#EC6D2B"/>
</linearGradient>
<linearGradient id="paint9_linear_1_7684" x1="96.9835" y1="51.7963" x2="0.807133" y2="51.7963" gradientUnits="userSpaceOnUse">
<stop stop-color="#C20403"/>
<stop offset="1" stop-color="#EC6D2B"/>
</linearGradient>
<linearGradient id="paint10_linear_1_7684" x1="96.9835" y1="51.7963" x2="0.807133" y2="51.7963" gradientUnits="userSpaceOnUse">
<stop stop-color="#C20403"/>
<stop offset="1" stop-color="#EC6D2B"/>
</linearGradient>
</defs>
</svg>
