<?xml version="1.0" encoding="UTF-8"?>
<svg width="120" height="30" viewBox="0 0 120 30" fill="none" xmlns="http://www.w3.org/2000/svg">
  <path d="M32.1948 8.7619C35.5644 8.7619 38.3896 11.5871 38.3896 14.9567C38.3896 18.3262 35.5644 21.1514 32.1948 21.1514C28.8253 21.1514 26 18.3262 26 14.9567C26 11.5871 28.8253 8.7619 32.1948 8.7619Z" fill="#FC0200"/>
  <path d="M27.8416 14.9567C27.8416 17.3036 29.8479 19.3099 32.1948 19.3099C34.5417 19.3099 36.548 17.3036 36.548 14.9567C36.548 12.6097 34.5417 10.6035 32.1948 10.6035C29.8479 10.6035 27.8416 12.6097 27.8416 14.9567Z" fill="#FC0200"/>
  <path d="M32.1948 11.5242C33.9953 11.5242 35.4577 12.9866 35.4577 14.7871C35.4577 16.5876 33.9953 18.05 32.1948 18.05C30.3943 18.05 28.9319 16.5876 28.9319 14.7871C28.9319 12.9866 30.3943 11.5242 32.1948 11.5242Z" fill="#FC0200"/>
  <path d="M49.9345 11.8228H47.2963V18.1003H45.2456V11.8228H42.6074V10.0257H49.9345V11.8228Z" fill="white"/>
  <path d="M57.8526 10.0257V18.1003H55.8019V14.7642H52.3044V18.1003H50.2537V10.0257H52.3044V12.9671H55.8019V10.0257H57.8526Z" fill="white"/>
  <path d="M60.0953 18.1003V10.0257H66.6138V11.8228H62.146V13.1786H66.1532V14.9756H62.146V16.3033H66.6138V18.1003H60.0953Z" fill="white"/>
  <path d="M75.4464 10.0257C76.6198 10.0257 77.5411 10.3054 78.2103 10.8649C78.8795 11.4243 79.214 12.1872 79.214 13.1535C79.214 14.1199 78.8795 14.8827 78.2103 15.4422C77.5411 16.0016 76.6198 16.2814 75.4464 16.2814H73.717V18.1003H71.6663V10.0257H75.4464ZM75.3331 14.4844C75.8926 14.4844 76.3299 14.3628 76.6448 14.1199C76.9598 13.8769 77.1173 13.5537 77.1173 13.1504C77.1173 12.747 76.9598 12.4239 76.6448 12.1809C76.3299 11.9379 75.8926 11.8164 75.3331 11.8164H73.717V14.4844H75.3331Z" fill="white"/>
  <path d="M87.6634 18.1003L85.1371 14.5783H84.0332V18.1003H81.9825V10.0257H85.9645C87.1378 10.0257 88.0591 10.3054 88.7283 10.8649C89.3976 11.4243 89.7322 12.1872 89.7322 13.1535C89.7322 13.9164 89.5214 14.556 89.0998 15.0723C88.6782 15.5887 88.0904 15.9421 87.3365 16.1319L90.1928 18.1003H87.6634ZM84.0332 12.9953C84.58 12.9953 85.0173 12.8737 85.3448 12.6307C85.6724 12.3878 85.8362 12.0647 85.8362 11.6613C85.8362 11.2579 85.6724 10.9348 85.3448 10.6918C85.0173 10.4489 84.58 10.3273 84.0332 10.3273H82.2549V12.9953H84.0332Z" fill="white"/>
  <path d="M91.6025 10.0257H93.6533V18.1003H91.6025V10.0257Z" fill="white"/>
  <path d="M95.5977 10.0257H97.6485V16.3033H101.642V18.1003H95.5977V10.0257Z" fill="white"/>
  <path d="M107.994 10.0257L111.427 18.1003H109.245L108.617 16.5376H105.217L104.589 18.1003H102.442L105.875 10.0257H107.994ZM106.917 11.6238L105.683 14.7642H108.151L106.917 11.6238Z" fill="white"/>
  <path d="M112.429 10.0257H114.479V16.3033H118.473V18.1003H112.429V10.0257Z" fill="white"/>
</svg> 