<svg width="111" height="96" viewBox="0 0 111 96" fill="none" xmlns="http://www.w3.org/2000/svg">
<path d="M18.2999 6.7L18.4262 7.0128C22.6393 17.4476 26.8079 27.8963 30.9777 38.3479C32.7053 42.6782 34.4331 47.009 36.1643 51.3394L36.2399 51.5286L36.1617 51.7168L30.7243 64.8043L30.724 64.805C30.333 65.7416 30.444 66.8806 31.0082 67.724C31.5726 68.5673 32.5831 69.1042 33.5979 69.1L33.6 69.1L93.6 69.1H93.6069C95.2302 69.1226 96.7512 67.6231 96.7512 66C96.7512 64.3768 95.2301 62.877 93.6071 62.9L93.6 62.9001L39 62.9H38.2482L38.5389 62.2067L41.6514 54.7817L41.7692 54.5008L42.0728 54.4766L99.8602 49.8642L99.8609 49.8641C101.156 49.7624 102.344 48.7403 102.638 47.4751L18.2999 6.7ZM18.2999 6.7H17.9626H3.6C1.88787 6.7 0.5 5.31208 0.5 3.6C0.5 1.88792 1.88787 0.5 3.6 0.5H20.4C21.6195 0.500031 22.8156 1.30607 23.2735 2.43642C23.2736 2.43679 23.2738 2.43716 23.2739 2.43754L27.1732 12.1857L27.2989 12.5H27.6374L106.8 12.5L106.802 12.5C107.698 12.4971 108.562 12.9758 109.157 13.7162C109.751 14.456 110.033 15.4019 109.838 16.2761C109.837 16.2768 109.837 16.2775 109.837 16.2782L102.638 47.4745L18.2999 6.7ZM30.525 18.7H29.7863L30.0608 19.3858L41.4984 47.9608L41.6352 48.3026L42.0022 48.2734L96.7146 43.9234L97.0799 43.8944L97.1622 43.5374L102.75 19.3124L102.891 18.7H102.263H30.525ZM34.1 84C34.1 77.6913 39.2914 72.5 45.6 72.5C51.9086 72.5 57.1 77.6914 57.1 84C57.1 90.3086 51.9086 95.5 45.6 95.5C39.2914 95.5 34.1 90.3086 34.1 84ZM70.1 84C70.1 77.6914 75.2914 72.5 81.6 72.5C87.9086 72.5 93.1 77.6913 93.1 84C93.1 90.3086 87.9086 95.5 81.6 95.5C75.2914 95.5 70.1 90.3086 70.1 84ZM50.9 84C50.9 81.0302 48.5698 78.7 45.6 78.7C42.6305 78.7 40.3 81.0303 40.3 84C40.3 86.9697 42.6305 89.3 45.6 89.3C48.5698 89.3 50.9 86.9698 50.9 84ZM86.9 84C86.9 81.0303 84.5695 78.7 81.6 78.7C78.6302 78.7 76.3 81.0302 76.3 84C76.3 86.9698 78.6302 89.3 81.6 89.3C84.5695 89.3 86.9 86.9697 86.9 84Z" fill="url(#paint0_linear_1_7640)" stroke="#1D1D1D" stroke-width="0.5"/>
<defs>
<linearGradient id="paint0_linear_1_7640" x1="110.399" y1="48" x2="0" y2="48" gradientUnits="userSpaceOnUse">
<stop stop-color="#C20403"/>
<stop offset="1" stop-color="#EC6D2B"/>
</linearGradient>
</defs>
</svg>
