<svg width="93" height="55" viewBox="0 0 93 55" fill="none" xmlns="http://www.w3.org/2000/svg">
<mask id="path-1-inside-1_1_7670" fill="white">
<path fill-rule="evenodd" clip-rule="evenodd" d="M0.668414 15.3687L11.1079 1.37493C11.5854 0.734553 12.3962 0.181303 13.3474 0.0411328C14.2681 -0.0952736 15.1359 0.139651 15.8748 0.696665L37.7045 17.7101C38.6972 18.4831 39.1784 19.7108 39.008 20.912C41.8348 21.7494 43.9453 22.4542 44.9381 22.7915C45.6012 22.3974 47.6019 21.3326 48.2461 21.1697C49.9626 20.7339 51.7663 20.5406 53.5965 20.5406C53.5624 19.4607 54.0436 18.3998 54.934 17.7063C62.2018 12.0415 69.4691 6.20943 76.8054 0.655009C78.2946 -0.458979 80.4242 -0.106621 81.5306 1.36739L91.9701 15.3611C93.0879 16.8579 92.762 18.957 91.2994 20.0976C84.0279 25.7663 76.7683 31.5828 69.428 37.1489C68.3822 37.9295 66.9688 38.0128 65.8206 37.3952C64.6384 38.7858 63.0583 40.294 61.6525 41.5558C64.1079 44.087 61.9594 47.7625 59.0228 47.8421C58.5151 49.7595 56.522 51.1046 54.5781 50.6423C53.8392 52.3134 51.8954 53.3819 50.0879 52.8022C49.0535 54.9317 46.1623 55.9169 44.1238 53.8783L42.7558 52.5104L41.2288 54.0374C39.4593 55.807 36.4279 55.0188 35.7382 52.6316C33.8512 52.5634 32.2332 51.0061 32.0779 49.1228C30.4751 48.778 29.217 47.4064 29.0427 45.7694C26.4054 45.2503 24.833 42.0294 26.8146 39.737L25.4771 37.7893C24.6927 37.8575 23.8818 37.6529 23.2035 37.1452C15.8297 31.5675 8.62677 25.7773 1.3321 20.0939C-0.122951 18.9647 -0.449368 16.8654 0.668414 15.3687ZM37.6355 23.4359L27.9389 36.4324L28.8256 37.7245L32.27 34.2801C34.7064 31.8437 38.2872 33.7344 38.5904 36.5953C40.2462 36.9211 41.5611 38.3497 41.7013 40.0397C43.6489 40.4603 45.1115 42.4383 44.6834 44.4503C45.8126 45.0377 46.5893 46.254 46.5552 47.5423C47.1047 47.1482 47.8739 47.1937 48.3665 47.6901L50.5453 49.8689C51.3713 50.6949 52.6217 49.4445 51.7958 48.6184L48.2605 45.0831C47.711 44.5337 47.711 43.647 48.2605 43.0976C48.8099 42.5481 49.6966 42.5481 50.246 43.0976L54.7893 47.6408C55.6267 48.4782 56.8013 47.2126 56.1079 46.4585L50.5189 40.8695C49.9695 40.32 49.9695 39.4333 50.5189 38.8839C51.0683 38.3345 51.955 38.3345 52.5045 38.8839L58.374 44.7534C59.2 45.5795 60.4504 44.329 59.6244 43.5029L58.6355 42.514C58.0065 41.9949 54.1453 38.7892 47.4267 32.6701C46.8091 32.9618 45.8049 33.4393 44.3044 34.1744C44.2248 34.2199 44.1414 34.2578 44.0505 34.2881C38.9578 36.0198 35.862 30.7073 38.6509 27.8729C39.7573 26.7248 40.8903 25.6979 42.0422 24.7923C40.8865 24.4134 39.3937 23.9474 37.6355 23.4359ZM41.7657 49.5473L43.5694 47.7436C43.8157 47.4973 43.7551 47.2548 43.5656 47.0653C43.3686 46.8721 43.1336 46.8001 42.8798 47.054L38.5563 51.3736C38.1016 51.8283 38.795 52.518 39.246 52.0633L41.7657 49.5473ZM44.744 50.5362L46.112 51.9042C46.9494 52.7416 48.124 51.476 47.4306 50.7219C46.9684 50.2217 46.2257 49.6685 46.0438 49.1305C45.7406 49.589 45.157 50.1232 44.744 50.5362ZM54.9633 23.3908C53.9516 23.3339 52.9816 23.3339 52.057 23.3983C50.996 23.4741 49.9843 23.6295 49.0181 23.8682C48.3019 24.1031 46.5817 25.0543 45.8428 25.5203C44.0126 26.6684 42.2544 28.1499 40.6553 29.8097C40.068 30.4197 40.5795 31.2989 41.2123 31.6209C41.6632 31.8483 42.2961 31.9051 43.0842 31.6475C46.252 30.0976 47.097 29.7225 47.097 29.7225C47.635 29.48 48.2413 29.6051 48.643 29.9878C54.304 35.1562 57.9872 38.3164 59.5782 39.6579C60.984 38.4074 62.7459 36.7402 63.8827 35.3457L54.9633 23.3908ZM36.4832 49.4799L41.6479 44.3152C42.4701 43.4892 41.2235 42.2388 40.3974 43.0647L35.1721 48.2862C34.5772 48.8849 35.0433 49.5556 35.5283 49.764C35.8996 49.9231 36.1573 49.7679 36.4832 49.4799ZM33.3761 46.1112L38.6052 40.8822C39.435 40.0523 38.1883 38.7943 37.3547 39.6317L32.1294 44.857C31.3033 45.6868 32.5424 46.941 33.3761 46.1112ZM30.2765 42.7426L35.5018 37.5173C36.3316 36.6875 35.085 35.4295 34.2513 36.2668L29.026 41.4921C28.1962 42.3182 29.4391 43.5761 30.2765 42.7426Z"/>
</mask>
<path d="M13.3545 3.05406L12.1507 2.1512L12.1482 2.15454L13.3545 3.05406ZM35.9576 20.9926L37.1636 21.8924L37.1645 21.8913L35.9576 20.9926ZM25.6849 34.7623L26.8819 35.6743L26.891 35.6621L25.6849 34.7623ZM24.8854 34.9101L23.9724 36.1062L23.9767 36.1095L24.8854 34.9101ZM3.06343 17.9005L3.98877 16.7138L3.98255 16.709L3.06343 17.9005ZM2.91944 17.0479L4.12529 17.948L4.12574 17.9474L2.91944 17.0479ZM89.7173 17.049L88.5111 17.9486L88.5115 17.9491L89.7173 17.049ZM89.5733 17.9015L88.6542 16.7101L88.6484 16.7146L89.5733 17.9015ZM67.7514 34.9111L68.6485 36.1194L68.6644 36.1072L67.7514 34.9111ZM66.9519 34.7633L68.1579 33.8635L68.1578 33.8634L66.9519 34.7633ZM56.5085 20.7696L57.7144 19.8696L57.7143 19.8695L56.5085 20.7696ZM14.5583 3.95692C14.4381 4.11726 14.2316 4.26228 13.9657 4.30313C13.7069 4.34287 13.4878 4.26996 13.346 4.17608L15.0076 1.6668C14.1065 1.07012 12.8642 1.19988 12.1507 2.1512L14.5583 3.95692ZM35.0515 21.1004C35.0157 21.0723 34.9048 20.9741 34.8218 20.7852C34.7335 20.5842 34.7216 20.3825 34.7454 20.225C34.7663 20.0875 34.8099 20.0093 34.8105 20.0082C34.812 20.0054 34.7993 20.0286 34.7506 20.0939L37.1645 21.8913C37.2973 21.713 37.6319 21.2638 37.721 20.6756C37.7723 20.3366 37.7438 19.9542 37.5772 19.5748C37.4158 19.2074 37.1646 18.933 36.9091 18.7326L35.0515 21.1004ZM34.7515 20.0928L24.4788 33.8625L26.891 35.6621L37.1636 21.8924L34.7515 20.0928ZM24.488 33.8503C24.6241 33.6716 24.8067 33.5652 25 33.5244C25.2056 33.481 25.5144 33.4988 25.794 33.7106L23.9767 36.1095C25.0451 36.9189 26.3258 36.404 26.8818 35.6742L24.488 33.8503ZM25.7983 33.7139C18.4926 28.1381 11.2648 22.3877 3.98876 16.7139L2.13811 19.0871C9.3816 24.7355 16.6517 30.519 23.9724 36.1062L25.7983 33.7139ZM3.98255 16.709C4.26925 16.9302 4.48738 17.463 4.12529 17.948L1.71359 16.1478C0.949848 17.1709 1.32713 18.4615 2.14432 19.0919L3.98255 16.709ZM4.12574 17.9474L14.5608 3.95359L12.1482 2.15454L1.71315 16.1484L4.12574 17.9474ZM88.5115 17.9491C88.1493 17.464 88.3675 16.9313 88.6542 16.7101L90.4924 19.093C91.3096 18.4626 91.6869 17.172 90.9231 16.1488L88.5115 17.9491ZM88.6484 16.7146C81.3553 22.3972 74.1632 28.124 66.8384 33.715L68.6644 36.1072C76.0026 30.506 83.2407 24.7433 90.4982 19.0885L88.6484 16.7146ZM66.8544 33.7029C67.1313 33.4974 67.4314 33.4818 67.6298 33.5229C67.8185 33.562 68.0119 33.6678 68.1579 33.8635L65.7458 35.6632C66.3178 36.4298 67.6027 36.8956 68.6484 36.1193L66.8544 33.7029ZM68.1578 33.8634L57.7144 19.8696L55.3025 21.6696L65.7459 35.6633L68.1578 33.8634ZM57.7143 19.8695C58.0764 20.3546 57.8582 20.8873 57.5716 21.1085L55.7333 18.7256C54.9162 19.356 54.5388 20.6466 55.3026 21.6697L57.7143 19.8695ZM78.0714 3.95107L88.5111 17.9486L90.9235 16.1493L80.4839 2.15182L78.0714 3.95107ZM0.668414 15.3687L3.07972 17.1694L3.08063 17.1682L0.668414 15.3687ZM11.1079 1.37493L13.5202 3.17448L13.5207 3.17378L11.1079 1.37493ZM13.3474 0.0411328L13.7861 3.01849L13.7884 3.01815L13.3474 0.0411328ZM15.8748 0.696665L17.7248 -1.67706L17.7057 -1.69192L17.6864 -1.70648L15.8748 0.696665ZM37.7045 17.7101L35.8545 20.0838L35.8555 20.0847L37.7045 17.7101ZM39.008 20.912L36.0283 20.4892L35.6636 23.06L38.1532 23.7976L39.008 20.912ZM44.9381 22.7915L43.9701 25.641L45.2833 26.0872L46.4756 25.3786L44.9381 22.7915ZM48.2461 21.1697L48.9842 24.0873L48.9867 24.0866L48.2461 21.1697ZM53.5965 20.5406V23.5502H56.7025L56.6045 20.4457L53.5965 20.5406ZM54.934 17.7063L56.7832 20.0807L56.7842 20.0799L54.934 17.7063ZM76.8054 0.655009L75.0027 -1.7549L74.9888 -1.74439L76.8054 0.655009ZM81.5306 1.36739L83.9428 -0.432169L83.9375 -0.439278L81.5306 1.36739ZM91.9701 15.3611L89.5579 17.1607L89.5588 17.1619L91.9701 15.3611ZM91.2994 20.0976L93.1497 22.4711L93.1501 22.4708L91.2994 20.0976ZM69.428 37.1489L71.2282 39.5607L71.2464 39.5469L69.428 37.1489ZM65.8206 37.3952L67.2464 34.7448L65.1037 33.5922L63.5278 35.4459L65.8206 37.3952ZM61.6525 41.5558L59.6422 39.3161L57.3142 41.4058L59.4923 43.6512L61.6525 41.5558ZM59.0228 47.8421L58.9413 44.8337L56.6901 44.8947L56.1136 47.0717L59.0228 47.8421ZM54.5781 50.6423L55.2745 47.7145L52.8383 47.1351L51.8257 49.4253L54.5781 50.6423ZM50.0879 52.8022L51.007 49.9364L48.5215 49.1393L47.3809 51.4872L50.0879 52.8022ZM44.1238 53.8783L46.2518 51.7503L44.1238 53.8783ZM42.7558 52.5104L44.8839 50.3823L42.7558 48.2543L40.6278 50.3823L42.7558 52.5104ZM41.2288 54.0374L43.3568 56.1655V56.1655L41.2288 54.0374ZM35.7382 52.6316L38.6295 51.7963L38.0246 49.7028L35.8469 49.6241L35.7382 52.6316ZM32.0779 49.1228L35.0772 48.8755L34.8937 46.6502L32.7108 46.1806L32.0779 49.1228ZM29.0427 45.7694L32.0353 45.4507L31.8004 43.245L29.624 42.8166L29.0427 45.7694ZM26.8146 39.737L29.0914 41.7051L30.6104 39.9479L29.2955 38.0332L26.8146 39.737ZM25.4771 37.7893L27.9579 36.0856L26.9645 34.6391L25.2163 34.7911L25.4771 37.7893ZM23.2035 37.1452L21.3879 39.5454L21.4001 39.5545L23.2035 37.1452ZM1.3321 20.0939L3.18176 17.7199L3.17723 17.7163L1.3321 20.0939ZM37.6355 23.4359L38.4762 20.5462L36.4717 19.963L35.2234 21.6362L37.6355 23.4359ZM27.9389 36.4324L25.5268 34.6327L24.2387 36.3592L25.4575 38.1352L27.9389 36.4324ZM28.8256 37.7245L26.3442 39.4273L28.3931 42.4131L30.9536 39.8525L28.8256 37.7245ZM32.27 34.2801L34.398 36.4081H34.398L32.27 34.2801ZM38.5904 36.5953L35.5976 36.9124L35.8315 39.1196L38.0092 39.5481L38.5904 36.5953ZM41.7013 40.0397L38.7021 40.2884L38.8864 42.5107L41.066 42.9814L41.7013 40.0397ZM44.6834 44.4503L41.7398 43.8239L41.2631 46.0637L43.2947 47.1203L44.6834 44.4503ZM46.5552 47.5423L43.5468 47.4628L43.3867 53.5185L48.3092 49.9878L46.5552 47.5423ZM48.3665 47.6901L46.2303 49.81L46.2384 49.8181L48.3665 47.6901ZM50.5453 49.8689L48.4172 51.9969H48.4172L50.5453 49.8689ZM51.7958 48.6184L53.9239 46.4905L53.9238 46.4904L51.7958 48.6184ZM48.2605 45.0831L50.3885 42.9551L50.3885 42.9551L48.2605 45.0831ZM48.2605 43.0976L50.3885 45.2256L50.3885 45.2256L48.2605 43.0976ZM50.246 43.0976L48.118 45.2256L48.118 45.2256L50.246 43.0976ZM54.7893 47.6408L56.9173 45.5128L54.7893 47.6408ZM56.1079 46.4585L58.3233 44.4215L58.2806 44.3751L58.236 44.3305L56.1079 46.4585ZM50.5189 40.8695L48.3908 42.9975L48.3909 42.9975L50.5189 40.8695ZM50.5189 38.8839L52.6469 41.012L52.6469 41.012L50.5189 38.8839ZM52.5045 38.8839L50.3764 41.0119L50.3764 41.012L52.5045 38.8839ZM58.374 44.7534L56.2459 46.8815L58.374 44.7534ZM59.6244 43.5029L61.7526 41.375L61.7525 41.3749L59.6244 43.5029ZM58.6355 42.514L60.7635 40.3859L60.6619 40.2843L60.5511 40.1929L58.6355 42.514ZM47.4267 32.6701L49.4532 30.4451L47.9634 29.0882L46.1413 29.9489L47.4267 32.6701ZM44.3044 34.1744L42.9803 31.4718L42.8944 31.5139L42.8112 31.5614L44.3044 34.1744ZM44.0505 34.2881L43.0987 31.433L43.0816 31.4388L44.0505 34.2881ZM38.6509 27.8729L40.7961 29.9837L40.8071 29.9725L40.8179 29.9613L38.6509 27.8729ZM42.0422 24.7923L43.9023 27.1582L48.3214 23.6839L42.9798 21.9326L42.0422 24.7923ZM41.7657 49.5473L43.8922 51.6769L43.8938 51.6753L41.7657 49.5473ZM43.5694 47.7436L41.4414 45.6156L41.4414 45.6156L43.5694 47.7436ZM43.5656 47.0653L45.6936 44.9373L45.6833 44.927L45.6729 44.9168L43.5656 47.0653ZM42.8798 47.054L45.0069 49.1829L45.0078 49.182L42.8798 47.054ZM38.5563 51.3736L36.4292 49.2447L36.4283 49.2456L38.5563 51.3736ZM39.246 52.0633L37.1195 49.9336L37.109 49.9442L39.246 52.0633ZM44.744 50.5362L42.6158 48.4083L40.4881 50.5364L42.616 52.6643L44.744 50.5362ZM46.112 51.9042L48.24 49.7761L46.112 51.9042ZM47.4306 50.7219L49.646 48.6849L49.6407 48.6792L47.4306 50.7219ZM46.0438 49.1305L48.8948 48.1668L46.9253 42.3402L43.5333 47.4707L46.0438 49.1305ZM54.9633 23.3908L57.3755 21.5911L56.5352 20.4648L55.1321 20.386L54.9633 23.3908ZM52.057 23.3983L51.8478 20.3961L51.8426 20.3965L52.057 23.3983ZM49.0181 23.8682L48.2963 20.9465L48.187 20.9735L48.08 21.0086L49.0181 23.8682ZM45.8428 25.5203L47.4421 28.0697L47.4482 28.0658L45.8428 25.5203ZM40.6553 29.8097L38.4881 27.7216L38.4873 27.7224L40.6553 29.8097ZM41.2123 31.6209L39.8473 34.3031L39.8574 34.3082L41.2123 31.6209ZM43.0842 31.6475L44.0194 34.508L44.2186 34.4429L44.4068 34.3508L43.0842 31.6475ZM47.097 29.7225L48.318 32.4732L48.3336 32.4662L47.097 29.7225ZM48.643 29.9878L46.5671 32.1667L46.5902 32.1887L46.6138 32.2103L48.643 29.9878ZM59.5782 39.6579L57.6383 41.9587L59.631 43.6388L61.5784 41.9065L59.5782 39.6579ZM63.8827 35.3457L66.2153 37.2474L67.6987 35.4278L66.2949 33.5461L63.8827 35.3457ZM36.4832 49.4799L38.4761 51.735L38.5456 51.6735L38.6112 51.6079L36.4832 49.4799ZM41.6479 44.3152L43.7759 46.4433L43.7808 46.4384L41.6479 44.3152ZM40.3974 43.0647L42.5247 45.1936L42.5253 45.1929L40.3974 43.0647ZM35.1721 48.2862L33.0448 46.1574L33.0373 46.165L35.1721 48.2862ZM35.5283 49.764L34.3404 52.5291L34.3428 52.5302L35.5283 49.764ZM33.3761 46.1112L35.4991 48.2443L35.5041 48.2393L33.3761 46.1112ZM38.6052 40.8822L40.7332 43.0102L38.6052 40.8822ZM37.3547 39.6317L39.4827 41.7597L39.4874 41.755L37.3547 39.6317ZM32.1294 44.857L30.0013 42.7289L29.9965 42.7338L32.1294 44.857ZM30.2765 42.7426L32.3996 44.8756L32.4046 44.8706L30.2765 42.7426ZM35.5018 37.5173L33.3738 35.3892L35.5018 37.5173ZM34.2513 36.2668L36.3794 38.3949L36.3841 38.3902L34.2513 36.2668ZM29.026 41.4921L31.1492 43.625L31.1541 43.6202L29.026 41.4921ZM3.08063 17.1682L13.5202 3.17448L8.69572 -0.424616L-1.7438 13.5691L3.08063 17.1682ZM13.5207 3.17378C13.5206 3.17393 13.5232 3.17042 13.529 3.16402C13.5348 3.15766 13.5429 3.14935 13.5534 3.13974C13.5751 3.11998 13.6023 3.09902 13.6333 3.0798C13.698 3.03979 13.7527 3.02342 13.7861 3.01849L12.9086 -2.93622C11.1029 -2.67011 9.60699 -1.64688 8.6952 -0.423914L13.5207 3.17378ZM13.7884 3.01815C13.8585 3.00776 13.8955 3.0146 13.9158 3.01992C13.9378 3.02568 13.9868 3.04229 14.0631 3.09981L17.6864 -1.70648C16.3285 -2.73017 14.6546 -3.19488 12.9063 -2.93589L13.7884 3.01815ZM14.0248 3.07039L35.8545 20.0838L39.5545 15.3364L17.7248 -1.67706L14.0248 3.07039ZM35.8555 20.0847C35.9933 20.192 36.048 20.3506 36.0283 20.4892L41.9877 21.3348C42.3089 19.071 41.4011 16.7743 39.5534 15.3356L35.8555 20.0847ZM38.1532 23.7976C40.9306 24.6204 43.0015 25.312 43.9701 25.641L45.9062 19.9419C44.8891 19.5964 42.739 18.8785 39.8628 18.0265L38.1532 23.7976ZM46.4756 25.3786C46.7318 25.2263 47.3346 24.8947 47.9581 24.5791C48.2654 24.4236 48.5498 24.2862 48.7783 24.1842C49.0631 24.0569 49.0996 24.0581 48.9842 24.0873L47.5081 18.2521C46.7964 18.4321 45.8159 18.9174 45.2403 19.2087C44.5367 19.5647 43.8075 19.9625 43.4006 20.2043L46.4756 25.3786ZM48.9867 24.0866C50.4239 23.7218 51.9745 23.5502 53.5965 23.5502V17.5311C51.5581 17.5311 49.5013 17.746 47.5056 18.2527L48.9867 24.0866ZM56.6045 20.4457C56.6004 20.318 56.6582 20.1781 56.7832 20.0807L53.0849 15.3319C51.429 16.6215 50.5243 18.6034 50.5885 20.6356L56.6045 20.4457ZM56.7842 20.0799C64.1002 14.3775 71.3051 8.5941 78.622 3.05441L74.9888 -1.74439C67.633 3.82476 60.3033 9.70548 53.0839 15.3327L56.7842 20.0799ZM78.6081 3.06488C78.6619 3.02463 78.7388 2.99733 78.8496 3.01455C78.9664 3.03269 79.063 3.09322 79.1237 3.17405L83.9375 -0.439278C81.8747 -3.18732 77.8745 -3.90304 75.0027 -1.75486L78.6081 3.06488ZM79.1184 3.16693L89.5579 17.1607L94.3823 13.5616L83.9428 -0.432161L79.1184 3.16693ZM89.5588 17.1619C89.6591 17.2962 89.67 17.5518 89.4488 17.7244L93.1501 22.4708C95.854 20.3623 96.5166 16.4196 94.3814 13.5604L89.5588 17.1619ZM89.4491 17.7241C82.1325 23.428 74.9312 29.199 67.6096 34.7509L71.2464 39.5469C78.6054 33.9667 85.9234 28.1046 93.1497 22.4711L89.4491 17.7241ZM67.6279 34.7371C67.5509 34.7946 67.3991 34.827 67.2464 34.7448L64.3949 40.0456C66.5385 41.1987 69.2135 41.0644 71.2282 39.5607L67.6279 34.7371ZM63.5278 35.4459C62.4782 36.6804 61.0177 38.0815 59.6422 39.3161L63.6628 43.7954C65.0988 42.5064 66.7985 40.8912 68.1135 39.3445L63.5278 35.4459ZM59.4923 43.6512C59.6821 43.8469 59.7042 43.9706 59.7098 44.0108C59.7183 44.0717 59.7136 44.1761 59.6461 44.3168C59.4826 44.6578 59.1614 44.8277 58.9413 44.8337L59.1044 50.8505C61.8209 50.7768 64.0422 49.0692 65.0732 46.9198C66.1666 44.6401 65.9942 41.7092 63.8127 39.4603L59.4923 43.6512ZM56.1136 47.0717C56.063 47.263 55.9204 47.4686 55.7097 47.6043C55.5079 47.7342 55.3552 47.7337 55.2745 47.7145L53.8818 53.5701C57.5899 54.4521 61.0544 51.9268 61.9321 48.6125L56.1136 47.0717ZM51.8257 49.4253C51.7491 49.5985 51.5873 49.7744 51.3841 49.8764C51.1954 49.9711 51.0713 49.9571 51.007 49.9364L49.1688 55.6679C52.6573 56.7867 56.0654 54.7206 57.3306 51.8593L51.8257 49.4253ZM47.3809 51.4872C47.2548 51.7468 47.0107 51.9231 46.8001 51.9721C46.7106 51.993 46.6412 51.9883 46.5833 51.9721C46.5317 51.9576 46.4153 51.9138 46.2518 51.7503L41.9957 56.0064C43.7656 57.7762 46.0666 58.3228 48.1647 57.8344C50.1679 57.3681 51.8866 55.9871 52.795 54.1172L47.3809 51.4872ZM46.2518 51.7503L44.8839 50.3823L40.6278 54.6384L41.9957 56.0064L46.2518 51.7503ZM40.6278 50.3823L39.1007 51.9094L43.3568 56.1655L44.8839 54.6384L40.6278 50.3823ZM39.1008 51.9094C39.0501 51.96 39.0121 51.9751 38.9829 51.9825C38.9448 51.9921 38.8906 51.9947 38.8289 51.9788C38.767 51.9629 38.7209 51.9344 38.6927 51.9081C38.6711 51.8879 38.6475 51.8587 38.6295 51.7963L32.8469 53.467C34.1727 58.0556 39.968 59.5543 43.3568 56.1655L39.1008 51.9094ZM35.8469 49.6241C35.7049 49.619 35.5161 49.5532 35.3426 49.3866C35.1687 49.2197 35.0897 49.0276 35.0772 48.8755L29.0785 49.3702C29.358 52.7591 32.2051 55.5154 35.6295 55.6392L35.8469 49.6241ZM32.7108 46.1806C32.354 46.1039 32.0694 45.7706 32.0353 45.4507L26.0501 46.0881C26.3647 49.0421 28.5962 51.4522 31.4449 52.065L32.7108 46.1806ZM29.624 42.8166C29.3526 42.7631 29.0937 42.5507 28.9804 42.2748C28.9308 42.154 28.9265 42.0602 28.9353 41.9979C28.9423 41.949 28.9653 41.851 29.0914 41.7051L24.5379 37.7689C22.7439 39.8442 22.543 42.4442 23.4127 44.5616C24.2495 46.599 26.0955 48.2566 28.4615 48.7223L29.624 42.8166ZM29.2955 38.0332L27.9579 36.0856L22.9963 39.4931L24.3338 41.4407L29.2955 38.0332ZM25.2163 34.7911C25.1714 34.795 25.1317 34.7906 25.099 34.7816C25.0683 34.7731 25.0383 34.7593 25.0069 34.7358L21.4001 39.5545C22.7025 40.5294 24.257 40.9163 25.7378 40.7875L25.2163 34.7911ZM25.019 34.745C17.6644 29.1818 10.5282 23.4436 3.18175 17.7199L-0.517547 22.4679C6.72538 28.111 13.9949 33.9531 21.3879 39.5454L25.019 34.745ZM3.17723 17.7163C2.97616 17.5603 2.97492 17.3098 3.07972 17.1694L-1.7429 13.5679C-3.87365 16.4211 -3.22207 20.369 -0.513023 22.4714L3.17723 17.7163ZM35.2234 21.6362L25.5268 34.6327L30.3511 38.2321L40.0476 25.2355L35.2234 21.6362ZM25.4575 38.1352L26.3442 39.4273L31.307 36.0217L30.4204 34.7296L25.4575 38.1352ZM30.9536 39.8525L34.398 36.4081L30.142 32.152L26.6976 35.5964L30.9536 39.8525ZM34.398 36.4081C34.5931 36.2131 34.7217 36.1832 34.7663 36.1753C34.8276 36.1645 34.9238 36.166 35.0535 36.2212C35.3646 36.3533 35.57 36.6516 35.5976 36.9124L41.5831 36.2782C41.3076 33.6781 39.5711 31.6006 37.4068 30.6813C35.1165 29.7083 32.2853 30.0087 30.142 32.1521L34.398 36.4081ZM38.0092 39.5481C38.3837 39.6218 38.6763 39.9775 38.7021 40.2884L44.7005 39.7909C44.4459 36.7219 42.1087 34.2205 39.1715 33.6424L38.0092 39.5481ZM41.066 42.9814C41.2489 43.0209 41.4642 43.1533 41.6128 43.3669C41.7528 43.5682 41.7602 43.7279 41.7398 43.8239L47.627 45.0767C48.4393 41.2593 45.716 37.8278 42.3365 37.098L41.066 42.9814ZM43.2947 47.1203C43.3617 47.1552 43.4377 47.2217 43.4917 47.3096C43.544 47.3946 43.5471 47.4511 43.5468 47.4628L49.5637 47.6218C49.6305 45.095 48.1424 42.8572 46.072 41.7804L43.2947 47.1203ZM48.3092 49.9878C47.6957 50.4279 46.811 50.3952 46.2303 49.8099L50.5027 45.5702C48.9368 43.9922 46.5137 43.8686 44.8012 45.0968L48.3092 49.9878ZM46.2384 49.8181L48.4172 51.9969L52.6733 47.7409L50.4945 45.5621L46.2384 49.8181ZM48.4172 51.9969C49.208 52.7877 50.2752 53.2127 51.3957 53.1416C52.4397 53.0755 53.3136 52.5957 53.9181 51.9912C54.5226 51.3867 55.0023 50.5129 55.0685 49.4689C55.1395 48.3485 54.7147 47.2813 53.9239 46.4905L49.6676 50.7463C49.2898 50.3685 49.0184 49.7674 49.0615 49.0881C49.0997 48.485 49.3701 48.0271 49.662 47.7352C49.9539 47.4433 50.4118 47.1729 51.015 47.1347C51.6944 47.0916 52.2956 47.3631 52.6733 47.7408L48.4172 51.9969ZM53.9238 46.4904L50.3885 42.9551L46.1324 47.2112L49.6677 50.7465L53.9238 46.4904ZM50.3885 42.9551C51.0143 43.5809 51.0144 44.5998 50.3885 45.2256L46.1324 40.9695C44.4077 42.6942 44.4077 45.4865 46.1324 47.2112L50.3885 42.9551ZM50.3885 45.2256C49.7627 45.8514 48.7438 45.8515 48.118 45.2256L52.3741 40.9695C50.6494 39.2448 47.8571 39.2448 46.1324 40.9695L50.3885 45.2256ZM48.118 45.2256L52.6612 49.7689L56.9173 45.5128L52.3741 40.9695L48.118 45.2256ZM52.6612 49.7689C53.4319 50.5395 54.4835 50.9863 55.6215 50.9198C56.68 50.858 57.544 50.3704 58.1311 49.794C59.2036 48.7411 60.111 46.3658 58.3233 44.4215L53.8926 48.4955C53.4384 48.0015 53.2499 47.332 53.3246 46.7163C53.3906 46.1733 53.6418 45.7665 53.9143 45.499C54.1896 45.2286 54.6463 44.9475 55.2707 44.911C55.9746 44.8699 56.5654 45.1609 56.9173 45.5128L52.6612 49.7689ZM58.236 44.3305L52.6469 38.7414L48.3909 42.9975L53.9799 48.5866L58.236 44.3305ZM52.6469 38.7414C53.2728 39.3673 53.2728 40.3861 52.6469 41.012L48.3909 36.7559C46.6661 38.4806 46.6661 41.2728 48.3908 42.9975L52.6469 38.7414ZM52.6469 41.012C52.0211 41.6378 51.0023 41.6378 50.3764 41.0119L54.6325 36.7559C52.9078 35.0311 50.1156 35.0312 48.3908 36.7559L52.6469 41.012ZM50.3764 41.012L56.2459 46.8815L60.502 42.6254L54.6325 36.7559L50.3764 41.012ZM56.2459 46.8815C57.0367 47.6722 58.1039 48.0972 59.2243 48.0262C60.2684 47.96 61.1423 47.4803 61.7468 46.8758C62.3513 46.2713 62.831 45.3974 62.8971 44.3534C62.9682 43.233 62.5433 42.1659 61.7526 41.375L57.4963 45.6309C57.1185 45.2531 56.8471 44.652 56.8902 43.9726C56.9284 43.3695 57.1988 42.9116 57.4906 42.6197C57.7825 42.3278 58.2405 42.0574 58.8436 42.0192C59.5231 41.9761 60.1242 42.2476 60.502 42.6254L56.2459 46.8815ZM61.7525 41.3749L60.7635 40.3859L56.5074 44.642L57.4964 45.631L61.7525 41.3749ZM60.5511 40.1929C59.9576 39.7031 56.1336 36.5295 49.4532 30.4451L45.4002 34.895C52.157 41.049 56.0553 44.2866 56.7199 44.8351L60.5511 40.1929ZM46.1413 29.9489C45.5134 30.2455 44.4961 30.7292 42.9803 31.4718L45.6284 36.877C47.1137 36.1493 48.1048 35.6782 48.7122 35.3912L46.1413 29.9489ZM42.8112 31.5614C42.897 31.5124 42.9944 31.4678 43.0987 31.433L45.0023 37.1431C45.2884 37.0477 45.5526 36.9273 45.7975 36.7874L42.8112 31.5614ZM43.0816 31.4388C42.3579 31.6849 41.8626 31.6351 41.5582 31.5406C41.2384 31.4413 40.9951 31.252 40.8323 31.0273C40.4756 30.5348 40.6093 30.1736 40.7961 29.9837L36.5057 25.7622C33.9036 28.4067 34.1908 32.1189 35.9579 34.5583C37.8152 37.1223 41.2567 38.4168 45.0193 37.1374L43.0816 31.4388ZM40.8179 29.9613C41.8344 28.9065 42.8654 27.9734 43.9023 27.1582L40.1822 22.4264C38.9152 23.4225 37.6802 24.5431 36.4838 25.7846L40.8179 29.9613ZM42.9798 21.9326C41.7907 21.5427 40.2655 21.0667 38.4762 20.5462L36.7948 26.3256C38.5219 26.828 39.9824 27.2841 41.1046 27.652L42.9798 21.9326ZM43.8938 51.6753L45.6975 49.8716L41.4414 45.6156L39.6377 47.4193L43.8938 51.6753ZM45.6975 49.8717C46.2757 49.2934 46.8162 48.3613 46.7331 47.1731C46.657 46.0855 46.0923 45.3359 45.6936 44.9373L41.4376 49.1934C41.2284 48.9842 40.7887 48.4506 40.7287 47.5932C40.6617 46.6352 41.1094 45.9475 41.4414 45.6156L45.6975 49.8717ZM45.6729 44.9168C45.3338 44.5841 44.6095 43.9938 43.5154 43.8947C42.2806 43.7829 41.3256 44.3521 40.7517 44.9259L45.0078 49.182C44.6878 49.502 43.9772 49.9802 42.9727 49.8892C42.1087 49.811 41.6004 49.3533 41.4583 49.2139L45.6729 44.9168ZM40.7527 44.925L36.4292 49.2447L40.6834 53.5026L45.0069 49.1829L40.7527 44.925ZM36.4283 49.2456C35.7266 49.9473 35.3377 50.9145 35.406 51.9376C35.4691 52.8826 35.9043 53.6598 36.4364 54.1904C36.9683 54.7209 37.7463 55.1537 38.6906 55.2146C39.7136 55.2805 40.6818 54.8894 41.3829 54.1824L37.109 49.9442C37.5847 49.4645 38.2971 49.1577 39.0775 49.208C39.7792 49.2532 40.3276 49.5705 40.6867 49.9285C41.0459 50.2867 41.3648 50.8347 41.4117 51.5367C41.4638 52.3169 41.1587 53.0274 40.6844 53.5017L36.4283 49.2456ZM41.3724 54.1929L43.8922 51.6769L39.6393 47.4177L37.1195 49.9336L41.3724 54.1929ZM42.616 52.6643L43.9839 54.0322L48.24 49.7761L46.8721 48.4082L42.616 52.6643ZM43.9839 54.0322C44.7545 54.8028 45.8062 55.2496 46.9442 55.1832C48.0027 55.1214 48.8667 54.6337 49.4537 54.0574C50.5262 53.0044 51.4337 50.6291 49.646 48.6849L45.2153 52.7589C44.7611 52.2649 44.5725 51.5954 44.6473 50.9797C44.7133 50.4367 44.9645 50.0298 45.237 49.7623C45.5123 49.492 45.969 49.2108 46.5934 49.1744C47.2973 49.1333 47.8881 49.4242 48.24 49.7761L43.9839 54.0322ZM49.6407 48.6792C49.4517 48.4747 49.2545 48.2863 49.1173 48.156C48.9569 48.0036 48.8607 47.9136 48.7676 47.8199C48.6776 47.7292 48.6585 47.7019 48.6719 47.7197C48.6782 47.7279 48.799 47.8832 48.8948 48.1668L43.1927 50.0942C43.3795 50.6467 43.6613 51.073 43.8724 51.3519C44.0907 51.6404 44.3203 51.8835 44.4965 52.0609C44.6696 52.2352 44.8572 52.411 44.9717 52.5198C45.1095 52.6507 45.1784 52.719 45.2205 52.7646L49.6407 48.6792ZM43.5333 47.4707C43.5433 47.4556 43.4844 47.5391 43.2758 47.7541C43.1844 47.8482 43.0845 47.9473 42.9708 48.0588C42.8666 48.1611 42.7325 48.2916 42.6158 48.4083L46.8722 52.6641C47.0795 52.4568 48.0301 51.5829 48.5542 50.7902L43.5333 47.4707ZM55.1321 20.386C54.0143 20.3232 52.9166 20.3216 51.8478 20.3961L52.2662 26.4006C53.0465 26.3462 53.8889 26.3447 54.7945 26.3955L55.1321 20.386ZM51.8426 20.3965C50.6253 20.4834 49.4429 20.6633 48.2963 20.9465L49.7399 26.7899C50.5258 26.5957 51.3667 26.4648 52.2714 26.4002L51.8426 20.3965ZM48.08 21.0086C47.4421 21.2179 46.6186 21.6353 46.026 21.9504C45.3688 22.2998 44.6864 22.6915 44.2373 22.9748L47.4482 28.0658C47.7381 27.883 48.2852 27.5661 48.8519 27.2648C49.1307 27.1166 49.3924 26.9837 49.6114 26.88C49.8552 26.7646 49.9604 26.7264 49.9562 26.7278L48.08 21.0086ZM44.2435 22.9709C42.1695 24.272 40.2243 25.9195 38.4881 27.7216L42.8226 31.8978C44.2845 30.3804 45.8557 29.0648 47.4421 28.0697L44.2435 22.9709ZM38.4873 27.7224C37.2089 29.0503 37.2058 30.742 37.6793 31.9342C38.0997 32.9927 38.9195 33.8309 39.8473 34.3031L42.5774 28.9388C42.8724 29.0889 43.12 29.3265 43.2733 29.7124C43.3621 29.936 43.4476 30.291 43.3849 30.7304C43.3177 31.2001 43.1021 31.6075 42.8234 31.8969L38.4873 27.7224ZM39.8574 34.3082C41.1741 34.9721 42.6582 34.953 44.0194 34.508L42.149 28.7869C42.0416 28.8221 42.0375 28.8054 42.1219 28.8082C42.2095 28.8111 42.3719 28.8351 42.5673 28.9337L39.8574 34.3082ZM44.4068 34.3508C45.9825 33.5799 46.9737 33.1044 47.5664 32.8238C47.8625 32.6836 48.058 32.5926 48.1762 32.5381C48.2352 32.5108 48.2746 32.4928 48.2974 32.4825C48.3088 32.4773 48.316 32.4741 48.3193 32.4726C48.321 32.4719 48.3217 32.4716 48.3214 32.4717C48.3213 32.4717 48.321 32.4719 48.3204 32.4721C48.3201 32.4722 48.3198 32.4724 48.3194 32.4726C48.3192 32.4727 48.319 32.4728 48.3187 32.4729C48.3186 32.4729 48.3185 32.473 48.3184 32.473C48.3182 32.4731 48.318 32.4732 47.097 29.7225C45.8759 26.9719 45.8757 26.9719 45.8755 26.972C45.8754 26.9721 45.8752 26.9721 45.8751 26.9722C45.8748 26.9723 45.8745 26.9725 45.8742 26.9726C45.8736 26.9729 45.873 26.9732 45.8723 26.9735C45.8709 26.9741 45.8692 26.9748 45.8674 26.9756C45.8638 26.9772 45.8594 26.9792 45.8541 26.9816C45.8435 26.9863 45.8294 26.9927 45.8115 27.0008C45.7757 27.017 45.7244 27.0405 45.6547 27.0726C45.5154 27.1369 45.3017 27.2365 44.9906 27.3838C44.3689 27.6782 43.3537 28.1652 41.7616 28.9441L44.4068 34.3508ZM48.3336 32.4662C47.7094 32.7475 47.0148 32.5932 46.5671 32.1667L50.7189 27.8089C49.4678 26.6169 47.5606 26.2125 45.8604 26.9788L48.3336 32.4662ZM46.6138 32.2103C52.3037 37.4051 56.0166 40.5914 57.6383 41.9587L61.5181 37.357C59.9577 36.0414 56.3043 32.9073 50.6722 27.7652L46.6138 32.2103ZM61.5784 41.9065C63.0021 40.6401 64.9172 38.8397 66.2153 37.2474L61.5501 33.4441C60.5747 34.6406 58.9659 36.1747 57.578 37.4092L61.5784 41.9065ZM66.2949 33.5461L57.3755 21.5911L52.5512 25.1904L61.4706 37.1454L66.2949 33.5461ZM38.6112 51.6079L43.7759 46.4433L39.5198 42.1872L34.3552 47.3518L38.6112 51.6079ZM43.7808 46.4384C44.5697 45.6459 44.9905 44.5792 44.9189 43.4624C44.8521 42.4213 44.3742 41.5488 43.7704 40.944C43.1666 40.3393 42.2928 39.8584 41.2476 39.792C40.126 39.7208 39.0593 40.1468 38.2695 40.9366L42.5253 45.1929C42.1485 45.5697 41.5474 45.8422 40.8662 45.799C40.2614 45.7606 39.8028 45.489 39.5111 45.1969C39.2194 44.9048 38.9507 44.4481 38.9122 43.8479C38.8688 43.1721 39.1372 42.5715 39.5149 42.192L43.7808 46.4384ZM38.2701 40.9359L33.0448 46.1574L37.2994 50.4151L42.5247 45.1936L38.2701 40.9359ZM33.0373 46.165C31.9183 47.2912 31.602 48.8557 32.1345 50.2472C32.5662 51.3751 33.4555 52.149 34.3404 52.5291L36.7162 46.9988C37.116 47.1706 37.5298 47.505 37.7559 48.0958C37.8869 48.4379 37.9557 48.8862 37.8506 49.3742C37.7448 49.8651 37.5035 50.2097 37.3069 50.4075L33.0373 46.165ZM34.3428 52.5302C35.1818 52.8897 36.1298 52.9518 37.0481 52.6191C37.7764 52.3552 38.2862 51.9028 38.4761 51.735L34.4903 47.2248C34.3543 47.3449 34.5723 47.1142 34.9975 46.9601C35.2533 46.8674 35.5654 46.8061 35.9109 46.8202C36.2496 46.834 36.5236 46.9163 36.7138 46.9978L34.3428 52.5302ZM35.5041 48.2393L40.7332 43.0102L36.4771 38.7541L31.248 43.9832L35.5041 48.2393ZM40.7332 43.0102C41.5222 42.2212 41.9479 41.1575 41.8813 40.0399C41.8191 38.9966 41.3438 38.1185 40.7366 37.5085C40.1293 36.8985 39.2491 36.4155 38.1971 36.3529C37.0698 36.2859 36.0064 36.7204 35.222 37.5083L39.4874 41.755C39.1198 42.1243 38.5248 42.4021 37.8398 42.3613C37.2301 42.3251 36.766 42.0514 36.4709 41.755C36.1758 41.4585 35.9087 40.9981 35.8729 40.398C35.8327 39.7234 36.103 39.1282 36.4771 38.7541L40.7332 43.0102ZM35.2266 37.5036L30.0013 42.7289L34.2574 46.985L39.4827 41.7597L35.2266 37.5036ZM29.9965 42.7338C29.2114 43.5225 28.7886 44.583 28.8541 45.6966C28.9154 46.7369 29.3874 47.614 29.9926 48.2248C30.5978 48.8355 31.4752 49.3196 32.5246 49.3856C33.6488 49.4563 34.7122 49.0275 35.4991 48.2443L31.253 43.9782C31.6232 43.6098 32.219 43.3355 32.9022 43.3784C33.5107 43.4167 33.9736 43.691 34.268 43.9881C34.5626 44.2853 34.8276 44.7452 34.8628 45.3429C34.9023 46.0138 34.6343 46.6064 34.2623 46.9801L29.9965 42.7338ZM32.4046 44.8706L37.6299 39.6453L33.3738 35.3892L28.1485 40.6145L32.4046 44.8706ZM37.6299 39.6453C38.4189 38.8563 38.8445 37.7927 38.7779 36.675C38.7158 35.6318 38.2405 34.7536 37.6332 34.1436C37.026 33.5336 36.1457 33.0506 35.0938 32.9881C33.9665 32.921 32.9031 33.3556 32.1186 34.1435L36.3841 38.3902C36.0165 38.7594 35.4215 39.0372 34.7365 38.9965C34.1268 38.9602 33.6627 38.6866 33.3675 38.3901C33.0724 38.0937 32.8053 37.6333 32.7696 37.0331C32.7294 36.3586 32.9996 35.7634 33.3738 35.3892L37.6299 39.6453ZM32.1233 34.1388L26.898 39.3641L31.1541 43.6202L36.3794 38.3949L32.1233 34.1388ZM26.9029 39.3592C26.1119 40.1465 25.6839 41.21 25.7492 42.3286C25.8101 43.3726 26.2851 44.2512 26.8916 44.8613C27.4983 45.4717 28.3768 45.9542 29.4262 46.0188C30.5501 46.088 31.6127 45.6588 32.3996 44.8756L28.1534 40.6096C28.5216 40.2431 29.1148 39.9693 29.7961 40.0112C30.4028 40.0486 30.8655 40.3213 31.1605 40.6181C31.4553 40.9147 31.7228 41.376 31.758 41.9778C31.7975 42.6543 31.5252 43.2507 31.1492 43.625L26.9029 39.3592Z" fill="url(#paint0_linear_1_7670)" mask="url(#path-1-inside-1_1_7670)"/>
<defs>
<linearGradient id="paint0_linear_1_7670" x1="92.6382" y1="27.4999" x2="0" y2="27.4999" gradientUnits="userSpaceOnUse">
<stop stop-color="#C20403"/>
<stop offset="1" stop-color="#EC6D2B"/>
</linearGradient>
</defs>
</svg>
