<svg width="103" height="37" viewBox="0 0 103 37" fill="none" xmlns="http://www.w3.org/2000/svg">
<path d="M42.9212 5.89287L42.9192 5.89086C40.8362 3.81261 37.9502 2.5118 34.774 2.5118H14.04C10.8619 2.5118 7.97803 3.8077 5.89287 5.89287C3.81234 7.97339 2.5118 10.8606 2.5118 14.0364V22.9639C2.5118 26.1413 3.81341 29.0233 5.89086 31.1054L5.89488 31.1094C7.97783 33.1877 10.8638 34.4885 14.04 34.4885H34.774C37.9522 34.4885 40.836 33.1926 42.9212 31.1074C45.0017 29.0269 46.3022 26.1397 46.3022 22.9639V14.0364C46.3022 10.8606 45.0017 7.97339 42.9212 5.89287ZM96.934 5.89287L96.932 5.89086C94.8491 3.81261 91.9631 2.5118 88.7868 2.5118H68.0529C64.8747 2.5118 61.9909 3.8077 59.9057 5.89287C57.8252 7.97339 56.5246 10.8606 56.5246 14.0364V22.9639C56.5246 26.1413 57.8263 29.0233 59.9037 31.1054L59.9077 31.1094C61.9907 33.1877 64.8767 34.4885 68.0529 34.4885H88.7868C91.965 34.4885 94.8488 33.1926 96.934 31.1074C99.0145 29.0269 100.315 26.1397 100.315 22.9639V14.0364C100.315 10.8606 99.0145 7.97339 96.934 5.89287Z" stroke="url(#paint0_linear_0_14)" stroke-width="2.5"/>
<defs>
<linearGradient id="paint0_linear_0_14" x1="97.8033" y1="18.5001" x2="5.0236" y2="18.5001" gradientUnits="userSpaceOnUse">
<stop stop-color="#C20403"/>
<stop offset="1" stop-color="#EC6D2B"/>
</linearGradient>
</defs>
</svg>
