<svg width="66" height="60" viewBox="0 0 66 60" fill="none" xmlns="http://www.w3.org/2000/svg">
<path d="M33.0596 27.9604H32.9396H30.5391H21.2757C19.1717 27.9604 17.252 27.1018 15.8572 25.707C14.4588 24.3086 13.6038 22.3933 13.6038 20.2885V10.1924C13.6038 8.08836 14.4624 6.16862 15.8572 4.77384C17.2556 3.37542 19.1709 2.52044 21.2757 2.52044H44.7234C46.83 2.52044 48.7464 3.37787 50.147 4.77464C51.5449 6.17298 52.3996 8.08802 52.3996 10.1924V20.2885C52.3996 22.3925 51.541 24.3122 50.1462 25.707C48.7482 27.105 46.8329 27.9604 44.7234 27.9604H35.46H33.0596Z" stroke="url(#paint0_linear_0_15)" stroke-width="2.5"/>
<defs>
<linearGradient id="paint0_linear_0_15" x1="65.9992" y1="29.8592" x2="0" y2="29.8592" gradientUnits="userSpaceOnUse">
<stop stop-color="#C20403"/>
<stop offset="1" stop-color="#EC6D2B"/>
</linearGradient>
</defs>
</svg>
