<svg width="49" height="49" viewBox="0 0 49 49" fill="none" xmlns="http://www.w3.org/2000/svg">
<path d="M22.6022 30.9728L22.602 30.973C22.5486 31.022 22.4783 31.0485 22.4059 31.0469C22.3334 31.0453 22.2644 31.0158 22.2131 30.9646L22.213 30.9645L15.9473 24.6988L15.9362 24.6877L15.9249 24.6768C15.8981 24.6508 15.8766 24.6198 15.8619 24.5855C15.8472 24.5512 15.8394 24.5143 15.8391 24.477C15.8388 24.4396 15.8459 24.4026 15.86 24.3681L14.1872 23.6837L15.86 24.3681C15.8742 24.3335 15.895 24.3021 15.9214 24.2757L14.6434 22.9977L15.9214 24.2757C15.9478 24.2493 15.9792 24.2284 16.0138 24.2143C16.0483 24.2002 16.0854 24.1931 16.1227 24.1934C16.16 24.1937 16.1969 24.2015 16.2312 24.2162C16.2655 24.2309 16.2965 24.2523 16.3225 24.2792L16.3334 24.2905L16.3445 24.3016L21.1962 29.1534L22.4199 30.3771L23.6956 29.2077L34.7525 19.0718L34.7529 19.0714C34.8079 19.021 34.8807 18.9945 34.9552 18.9977C35.0297 19.0009 35.0999 19.0336 35.1504 19.0886L36.4823 17.8669L35.1504 19.0886C35.2008 19.1436 35.2273 19.2164 35.2241 19.2909C35.2209 19.3652 35.1884 19.4353 35.1336 19.4857C35.1336 19.4857 35.1335 19.4858 35.1335 19.4858C35.1334 19.4859 35.1333 19.486 35.1332 19.4861L22.6022 30.9728ZM24.5002 1.80703C20.0119 1.80703 15.6244 3.13796 11.8926 5.63152C8.16068 8.12507 5.25204 11.6693 3.53445 15.8159C1.81686 19.9625 1.36746 24.5254 2.24308 28.9274C3.1187 33.3294 5.28001 37.373 8.45371 40.5467C11.6274 43.7204 15.6709 45.8817 20.073 46.7573C24.475 47.6329 29.0379 47.1835 33.1845 45.4659C37.3311 43.7483 40.8753 40.8397 43.3689 37.1078C45.8624 33.376 47.1934 28.9885 47.1934 24.5002C47.1934 21.5201 46.6064 18.5692 45.4659 15.8159C44.3255 13.0626 42.6539 10.561 40.5467 8.4537C38.4394 6.34645 35.9378 4.67488 33.1845 3.53444C30.4312 2.394 27.4803 1.80703 24.5002 1.80703Z" stroke="url(#paint0_linear_1_7700)" stroke-width="1.8"/>
<defs>
<linearGradient id="paint0_linear_1_7700" x1="45.3859" y1="24.5002" x2="3.61445" y2="24.5002" gradientUnits="userSpaceOnUse">
<stop stop-color="#C20403"/>
<stop offset="1" stop-color="#EC6D2B"/>
</linearGradient>
</defs>
</svg>
