<svg width="68" height="112" viewBox="0 0 68 112" fill="none" xmlns="http://www.w3.org/2000/svg">
<path d="M50.0197 2H17.7504C8.79728 2 2 10.3408 2 19.9492V92.0508C2 101.659 8.79728 110 17.7504 110H50.0197C58.9728 110 65.7701 101.659 65.7701 92.0508V19.9492C65.7701 10.3408 58.9728 2 50.0197 2ZM40.0852 96.3084H27.6751C27.6666 96.3084 27.6534 96.3075 27.6288 96.2953C27.6012 96.2817 27.5541 96.2509 27.5003 96.1885C27.3896 96.0601 27.2837 95.8339 27.2837 95.5347C27.2837 95.2354 27.3896 95.0092 27.5003 94.8808C27.5541 94.8184 27.6012 94.7876 27.6288 94.774C27.6535 94.7618 27.6667 94.7609 27.6751 94.7609H40.0852C40.0937 94.7609 40.1069 94.7618 40.1316 94.774C40.1591 94.7876 40.2062 94.8184 40.26 94.8808C40.3707 95.0092 40.4766 95.2354 40.4766 95.5347C40.4766 95.8339 40.3707 96.0601 40.26 96.1885C40.2062 96.2509 40.1591 96.2817 40.1315 96.2953C40.1069 96.3075 40.0936 96.3084 40.0852 96.3084Z" stroke="url(#paint0_linear_1_7698)" stroke-width="2"/>
<defs>
<linearGradient id="paint0_linear_1_7698" x1="63.7701" y1="56" x2="4" y2="56" gradientUnits="userSpaceOnUse">
<stop stop-color="#C20403"/>
<stop offset="1" stop-color="#EC6D2B"/>
</linearGradient>
</defs>
</svg>
