<svg width="75" height="82" viewBox="0 0 75 82" fill="none" xmlns="http://www.w3.org/2000/svg">
<path d="M7.88412 8.15342L2.24445 74.4984C2.24444 74.4986 2.24443 74.4987 2.24442 74.4988C2.2444 74.4991 2.24437 74.4993 2.24435 74.4996C2.12739 75.8709 2.59396 77.1931 3.50952 78.1887L3.5095 78.1887L3.51679 78.1966C4.44277 79.1938 5.70929 79.7491 7.07851 79.7491H50.5368H53.5826L52.8788 77.54C52.9048 77.4959 52.9317 77.4488 52.9586 77.3992C53.1006 77.138 53.309 76.694 53.3617 76.1232L53.3643 76.0959L53.3661 76.0686L56.3306 32.2443C56.41 31.3917 56.9299 30.2084 57.8007 29.2163C58.7034 28.1878 59.5827 27.8032 60.1095 27.8032H70.3133H72.6569L72.5366 25.4626L71.6503 8.22801L71.6485 8.1929L71.6456 8.15787C71.3638 4.76859 68.554 2.23115 65.1921 2.23115H57.2861H55.0598V2.23165H54.111H25.4187H23.1925V2.23754L22.2513 2.23638L14.3404 2.22666H14.3377C10.957 2.22666 8.16672 4.76776 7.88431 8.15115C7.88425 8.1519 7.88418 8.15266 7.88412 8.15342ZM55.1684 19.122L55.7096 18.8299L56.2777 19.1185C56.6642 19.3149 56.9118 19.5275 57.0492 19.7071C57.1672 19.8613 57.2187 20.0047 57.2187 20.192C57.2187 21.0152 56.5468 21.6806 55.7399 21.6806C54.9205 21.6806 54.2513 21.0125 54.2513 20.192C54.2513 20.0132 54.2998 19.8732 54.4153 19.7187C54.5495 19.5392 54.7908 19.3258 55.1684 19.122ZM23.2568 19.1139L23.8145 18.8306L24.3579 19.1251C24.736 19.33 24.9769 19.5432 25.1107 19.722C25.2254 19.8753 25.2735 20.0138 25.2735 20.1922C25.2735 21.0153 24.6017 21.6807 23.7948 21.6807C22.9754 21.6807 22.3062 21.0126 22.3062 20.1922C22.3062 20.0064 22.3574 19.8631 22.4773 19.7072C22.6169 19.5255 22.8677 19.3115 23.2568 19.1139Z" stroke="url(#paint0_linear_1_7654)" stroke-width="2.2"/>
<defs>
<linearGradient id="paint0_linear_1_7654" x1="70.3133" y1="40.9879" x2="4.45292" y2="40.9879" gradientUnits="userSpaceOnUse">
<stop stop-color="#C20403"/>
<stop offset="1" stop-color="#EC6D2B"/>
</linearGradient>
</defs>
</svg>
