<svg width="55" height="57" viewBox="0 0 55 57" fill="none" xmlns="http://www.w3.org/2000/svg">
<path d="M5.99382 6.36704L5.99381 6.36704L5.99321 6.37403L2.23211 50.6841L2.23182 50.6875C2.15354 51.6269 2.45386 52.5742 3.11448 53.2981C3.7953 54.0537 4.72958 54.4288 5.66966 54.4288H49.3259C50.2715 54.4288 51.1992 54.0499 51.8723 53.3067L51.8723 53.3068L51.8843 53.2932C52.4914 52.6119 52.8517 51.6941 52.7687 50.6852L52.7682 50.679L49.0019 6.37448C49.0018 6.37424 49.0018 6.37399 49.0018 6.37375C48.8025 4.02431 46.8395 2.21962 44.4834 2.21962H10.5116C8.13935 2.21962 6.20052 4.01999 5.99382 6.36704ZM38.0427 15.2294L37.7221 15.4491L37.4021 15.2283C37.1973 15.0871 37.0935 14.9675 37.0478 14.8961C37.0139 14.8431 37.0089 14.8164 37.0089 14.777C37.0089 14.3838 37.3385 14.0542 37.7317 14.0542C38.1086 14.0542 38.4415 14.3758 38.4448 14.7711C38.4442 14.808 38.4378 14.8379 38.4023 14.8929C38.354 14.9679 38.2474 15.0891 38.0427 15.2294ZM17.6069 15.2347L17.3024 15.4521L16.9699 15.2311C16.7483 15.0839 16.6391 14.9613 16.5925 14.8908C16.5715 14.859 16.5643 14.8397 16.5616 14.8308C16.5592 14.8233 16.5551 14.8082 16.5551 14.777C16.5551 14.3838 16.8847 14.0542 17.2779 14.0542C17.6567 14.0542 17.9911 14.3791 17.9911 14.777C17.9911 14.8185 17.9853 14.8477 17.9514 14.9019C17.9066 14.9736 17.8058 15.0926 17.6069 15.2347Z" stroke="url(#paint0_linear_1_7656)" stroke-width="2.2"/>
<defs>
<linearGradient id="paint0_linear_1_7656" x1="50.5612" y1="28.3242" x2="4.43885" y2="28.3242" gradientUnits="userSpaceOnUse">
<stop stop-color="#C20403"/>
<stop offset="1" stop-color="#EC6D2B"/>
</linearGradient>
</defs>
</svg>
