<svg width="88" height="41" viewBox="0 0 88 41" fill="none" xmlns="http://www.w3.org/2000/svg">
<path d="M77.6472 17.7452V19.3857L79.219 19.8553C83.0222 20.9917 85.7981 24.5193 85.7981 28.6719C85.7981 33.7463 81.6674 37.877 76.593 37.877C71.5187 37.877 67.3878 33.7457 67.3878 28.6719C67.3878 24.5178 70.1616 20.9911 73.9637 19.8554L75.5356 19.3858V17.7452V15.635C75.5356 13.5224 73.8164 11.8031 71.7038 11.8031H47.2599H45.0576V14.0054V17.7452V19.3857L46.6294 19.8553C50.4317 20.9915 53.2054 24.5184 53.2054 28.6719C53.2054 33.7463 49.0746 37.877 44.0002 37.877C38.9259 37.877 34.7951 33.7457 34.7951 28.6719C34.7951 24.5178 37.5688 20.9911 41.3709 19.8554L42.9429 19.3858V17.7452V14.0054V11.8031H40.7406H16.2966C14.1841 11.8031 12.4648 13.5224 12.4648 15.635V17.7452V19.3857L14.0366 19.8553C17.8389 20.9915 20.6126 24.5184 20.6126 28.6719C20.6126 33.7463 16.4818 37.877 11.4074 37.877C6.33314 37.877 2.2023 33.7457 2.2023 28.6719C2.2023 24.5178 4.97606 20.9911 8.77813 19.8554L10.3501 19.3858V17.7452V15.635C10.3501 12.3578 13.0184 9.68947 16.2956 9.68947H40.7395H42.9418V7.48717V2.2023H45.0555V7.48717V9.68947H47.2578H71.7017C74.9789 9.68947 77.6472 12.3578 77.6472 15.635V17.7452Z" stroke="url(#paint0_linear_1_7715)" stroke-width="2.2"/>
<defs>
<linearGradient id="paint0_linear_1_7715" x1="88.0004" y1="20.0397" x2="0" y2="20.0397" gradientUnits="userSpaceOnUse">
<stop stop-color="#C20403"/>
<stop offset="1" stop-color="#EC6D2B"/>
</linearGradient>
</defs>
</svg>
